<?xml version="1.0" encoding="UTF-8"?> <svg xmlns="http://www.w3.org/2000/svg" width="70" height="70" viewBox="0 0 70 70" fill="none"><path fill-rule="evenodd" clip-rule="evenodd" d="M3.68415 1.8421H14.7368C15.7541 1.8421 16.5789 2.66684 16.5789 3.68421V14.7368C16.5789 15.7542 15.7541 16.5789 14.7368 16.5789H3.68415C2.66678 16.5789 1.84204 15.7542 1.84204 14.7368V3.68421C1.84204 2.66684 2.66678 1.8421 3.68415 1.8421Z" stroke="#282828" stroke-width="2"></path><path fill-rule="evenodd" clip-rule="evenodd" d="M55.263 1.8421H66.3156C67.333 1.8421 68.1577 2.66684 68.1577 3.68421V14.7368C68.1577 15.7542 67.333 16.5789 66.3156 16.5789H55.263C54.2456 16.5789 53.4209 15.7542 53.4209 14.7368V3.68421C53.4209 2.66684 54.2456 1.8421 55.263 1.8421Z" stroke="#FF3B1D" stroke-width="2"></path><path fill-rule="evenodd" clip-rule="evenodd" d="M3.68415 53.421H14.7368C15.7541 53.421 16.5789 54.2458 16.5789 55.2631V66.3158C16.5789 67.3331 15.7541 68.1579 14.7368 68.1579H3.68415C2.66678 68.1579 1.84204 67.3331 1.84204 66.3158V55.2631C1.84204 54.2458 2.66678 53.421 3.68415 53.421Z" stroke="#282828" stroke-width="2"></path><path fill-rule="evenodd" clip-rule="evenodd" d="M55.263 53.421H66.3156C67.333 53.421 68.1577 54.2458 68.1577 55.2631V66.3158C68.1577 67.3331 67.333 68.1579 66.3156 68.1579H55.263C54.2456 68.1579 53.4209 67.3331 53.4209 66.3158V55.2631C53.4209 54.2458 54.2456 53.421 55.263 53.421Z" stroke="#282828" stroke-width="2"></path><path d="M61.4707 18.4214V54.1522M54.1302 61.4706H16.0322H54.1302ZM8.52954 53.9454V16.1371V53.9454ZM16.2261 8.52942H51.5871H16.2261Z" stroke="#282828" stroke-width="2"></path></svg> 