<?xml version="1.0" encoding="UTF-8"?> <svg xmlns="http://www.w3.org/2000/svg" width="70" height="54" viewBox="0 0 70 54" fill="none"><path d="M50.7749 43.6038H4.9623C3.01062 43.6038 1.42847 42.03 1.42847 40.0886V4.93626C1.42847 2.99485 3.01062 1.42102 4.9623 1.42102H57.9698C59.9215 1.42102 61.5037 2.99485 61.5037 4.93626V20.7269" stroke="#282828" stroke-width="2"></path><path fill-rule="evenodd" clip-rule="evenodd" d="M53.0188 19.8457H64.9737C66.5516 19.8457 67.8308 21.1182 67.8308 22.6878V48.6407C67.8308 50.2104 66.5516 51.4828 64.9737 51.4828H53.0188C51.4408 51.4828 50.1616 50.2104 50.1616 48.6407V22.6878C50.1616 21.1182 51.4408 19.8457 53.0188 19.8457Z" stroke="#282828" stroke-width="2"></path><path d="M59.7366 47.1191C60.7125 47.1191 61.5036 46.3322 61.5036 45.3615C61.5036 44.3908 60.7125 43.6039 59.7366 43.6039C58.7608 43.6039 57.9697 44.3908 57.9697 45.3615C57.9697 46.3322 58.7608 47.1191 59.7366 47.1191Z" fill="#282828"></path><path d="M28.0061 43.585V50.6154" stroke="#282828" stroke-width="2" stroke-linecap="round"></path><path d="M35.0737 43.585V50.6154" stroke="#282828" stroke-width="2" stroke-linecap="round"></path><path d="M21.748 51.5132H41.1841" stroke="#282828" stroke-width="2" stroke-linecap="round"></path><path d="M38.5714 15.6316H25.7142C24.9252 15.6316 24.2856 16.2678 24.2856 17.0526V27C24.2856 27.7848 24.9252 28.4211 25.7142 28.4211H38.5714C39.3603 28.4211 39.9999 27.7848 39.9999 27V17.0526C39.9999 16.2678 39.3603 15.6316 38.5714 15.6316Z" stroke="#FF3B1D" stroke-width="2"></path></svg> 