<?xml version="1.0" encoding="UTF-8"?> <svg xmlns="http://www.w3.org/2000/svg" width="70" height="70" viewBox="0 0 70 70" fill="none"><path d="M43.7865 43.75L63 43.75C65.8995 43.75 68.25 46.1005 68.25 49V63C68.25 65.8995 65.8995 68.25 63 68.25L14.0944 68.25" stroke="#282828" stroke-width="2"></path><path d="M26.3566 27.2414C29.5984 23.9996 34.4611 19.1369 40.9447 12.6534C42.9949 10.6031 46.319 10.6031 48.3693 12.6534L58.2688 22.5528C60.319 24.6031 60.319 27.9272 58.2688 29.9775C53.0568 35.1895 48.3224 39.9238 44.0657 44.1805C36.7103 51.5359 30.7811 57.4652 26.278 61.9683" stroke="#FF3B1D" stroke-width="2"></path><path d="M21 68.25H7C4.10051 68.25 1.75 65.8995 1.75 63V7C1.75 4.10051 4.10051 1.75 7 1.75H21C23.8995 1.75 26.25 4.10051 26.25 7V68.25" stroke="#282828" stroke-width="2"></path><path d="M14.875 59.5C16.3247 59.5 17.5 58.3247 17.5 56.875C17.5 55.4253 16.3247 54.25 14.875 54.25C13.4253 54.25 12.25 55.4253 12.25 56.875C12.25 58.3247 13.4253 59.5 14.875 59.5Z" stroke="#282828" stroke-width="2"></path></svg> 