<?xml version="1.0" encoding="UTF-8"?> <svg xmlns="http://www.w3.org/2000/svg" width="78" height="56" viewBox="0 0 78 56" fill="none"><path d="M5.08691 19.5152C5.08691 9.67449 13.0582 1.69702 22.8913 1.69702C32.7243 1.69702 40.6956 9.67449 40.6956 19.5152V53.4546" stroke="#282828" stroke-width="2" stroke-linecap="round"></path><path d="M65.927 22.0474L40.7478 54.034" stroke="#282828" stroke-width="2" stroke-linecap="round"></path><path d="M72.913 16.9698C75.7225 16.9698 78 14.6905 78 11.8789C78 9.06724 75.7225 6.78796 72.913 6.78796C70.1036 6.78796 67.826 9.06724 67.826 11.8789C67.826 14.6905 70.1036 16.9698 72.913 16.9698Z" fill="#FF3B1D"></path><path d="M5.08696 35.6364C7.8964 35.6364 10.1739 33.3571 10.1739 30.5455C10.1739 27.7339 7.8964 25.4546 5.08696 25.4546C2.27751 25.4546 0 27.7339 0 30.5455C0 33.3571 2.27751 35.6364 5.08696 35.6364Z" fill="#FF3B1D"></path></svg> 