<?xml version="1.0" encoding="UTF-8"?> <svg xmlns="http://www.w3.org/2000/svg" width="70" height="56" viewBox="0 0 70 56" fill="none"><path d="M35 13.6215C38.3618 13.6215 41.087 10.911 41.087 7.56748C41.087 4.22392 38.3618 1.51343 35 1.51343C31.6383 1.51343 28.9131 4.22392 28.9131 7.56748C28.9131 10.911 31.6383 13.6215 35 13.6215Z" stroke="#282828" stroke-width="2"></path><path d="M45.6522 24.2162C45.6522 18.3649 40.8831 13.6216 35.0001 13.6216C29.117 13.6216 24.3479 18.3649 24.3479 24.2162" stroke="#282828" stroke-width="2" stroke-linecap="round"></path><path d="M12.1739 43.8918C15.5356 43.8918 18.2608 41.1813 18.2608 37.8377C18.2608 34.4942 15.5356 31.7837 12.1739 31.7837C8.81214 31.7837 6.08691 34.4942 6.08691 37.8377C6.08691 41.1813 8.81214 43.8918 12.1739 43.8918Z" stroke="#282828" stroke-width="2"></path><path d="M22.8261 54.4864C22.8261 48.6352 18.0569 43.8918 12.1739 43.8918C6.29087 43.8918 1.52173 48.6352 1.52173 54.4864" stroke="#282828" stroke-width="2" stroke-linecap="round"></path><path d="M57.826 43.8918C61.1877 43.8918 63.9129 41.1813 63.9129 37.8377C63.9129 34.4942 61.1877 31.7837 57.826 31.7837C54.4642 31.7837 51.739 34.4942 51.739 37.8377C51.739 41.1813 54.4642 43.8918 57.826 43.8918Z" stroke="#282828" stroke-width="2"></path><path d="M68.4782 54.4864C68.4782 48.6352 63.709 43.8918 57.826 43.8918C51.943 43.8918 47.1738 48.6352 47.1738 54.4864" stroke="#282828" stroke-width="2" stroke-linecap="round"></path><path d="M35.1404 29.5662V37.1337" stroke="#FF3B1D" stroke-width="2" stroke-linecap="round"></path><path d="M36.4109 37.5122L43.0002 41.296" stroke="#FF3B1D" stroke-width="2" stroke-linecap="round"></path><path d="M33.8699 37.5122L27.2806 41.296" stroke="#FF3B1D" stroke-width="2" stroke-linecap="round"></path></svg> 