<?xml version="1.0" encoding="UTF-8"?> <svg xmlns="http://www.w3.org/2000/svg" width="88" height="88" viewBox="0 0 88 88" fill="none"><path d="M42.7427 77.9428C51.3332 78.1566 59.6763 75.0551 66.0411 69.2818C72.406 63.5085 76.304 55.5065 76.9266 46.9359C77.5492 38.3654 74.8485 29.884 69.3848 23.2515C63.9212 16.6189 56.1139 12.3443 47.5827 11.3143M34.9107 11.8674C27.521 13.5575 20.9199 17.6966 16.1797 23.6121C11.4395 29.5277 8.8387 36.8722 8.7998 44.4526C8.80345 49.3953 9.91022 54.2749 12.0394 58.7355C14.1686 63.1962 17.2665 67.1254 21.1072 70.2366" stroke="black" stroke-width="2.02" stroke-linecap="round"></path><path d="M47.8844 14.0423L45.6719 10.9874" stroke="black" stroke-width="2" stroke-linecap="round"></path><path d="M48.7267 8.73712L45.6719 10.9497" stroke="black" stroke-width="2" stroke-linecap="round"></path><path d="M16.3428 77.9428H42.7428" stroke="black" stroke-width="2" stroke-linecap="round"></path><path d="M65.3711 77.9428H77.9425" stroke="#FF561D" stroke-width="2" stroke-linecap="round"></path><path d="M76.7236 75.2274L79.3888 77.8926" stroke="#FF561D" stroke-width="2" stroke-linecap="round"></path><path d="M76.7354 80.608L79.4005 77.9428" stroke="#FF561D" stroke-width="2" stroke-linecap="round"></path></svg> 