<?xml version="1.0" encoding="UTF-8"?> <svg xmlns="http://www.w3.org/2000/svg" width="88" height="88" viewBox="0 0 88 88" fill="none"><path fill-rule="evenodd" clip-rule="evenodd" d="M31.4284 8.79999V11.3143H11.3141V31.4286H8.7998V11.3143C8.7998 10.6474 9.0647 10.0079 9.53622 9.5364C10.0077 9.06488 10.6473 8.79999 11.3141 8.79999H31.4284ZM79.1998 31.4286H76.6855V11.3143H56.5712V8.79999H76.6855C77.3523 8.79999 77.9919 9.06488 78.4634 9.5364C78.9349 10.0079 79.1998 10.6474 79.1998 11.3143V31.4286ZM76.6855 56.5714H79.1998V76.6857C79.1998 77.3525 78.9349 77.9921 78.4634 78.4636C77.9919 78.9351 77.3523 79.2 76.6855 79.2H56.5712V76.6857H76.6855V56.5714ZM11.3141 76.6857H31.4284V79.2H11.3141C10.6473 79.2 10.0077 78.9351 9.53622 78.4636C9.0647 77.9921 8.7998 77.3525 8.7998 76.6857V56.5714H11.3141V76.6857Z" fill="black"></path><path d="M44.0003 49.0286C46.7775 49.0286 49.0288 46.7772 49.0288 44C49.0288 41.2228 46.7775 38.9714 44.0003 38.9714C41.223 38.9714 38.9717 41.2228 38.9717 44C38.9717 46.7772 41.223 49.0286 44.0003 49.0286Z" fill="#FF561D"></path><path d="M44.0003 49.0286C46.7775 49.0286 49.0288 46.7772 49.0288 44C49.0288 41.2228 46.7775 38.9714 44.0003 38.9714C41.223 38.9714 38.9717 41.2228 38.9717 44C38.9717 46.7772 41.223 49.0286 44.0003 49.0286Z" stroke="#FF561D" stroke-width="2" stroke-linecap="round" stroke-linejoin="round"></path></svg> 