<?xml version="1.0" encoding="UTF-8"?> <svg xmlns="http://www.w3.org/2000/svg" width="88" height="88" viewBox="0 0 88 88" fill="none"><path d="M72.9143 75.4286C75.6915 75.4286 77.9429 73.1772 77.9429 70.4C77.9429 67.6228 75.6915 65.3714 72.9143 65.3714C70.1371 65.3714 67.8857 67.6228 67.8857 70.4C67.8857 73.1772 70.1371 75.4286 72.9143 75.4286Z" fill="#FF561D"></path><path d="M72.9143 75.4286C75.6915 75.4286 77.9429 73.1772 77.9429 70.4C77.9429 67.6228 75.6915 65.3714 72.9143 65.3714C70.1371 65.3714 67.8857 67.6228 67.8857 70.4C67.8857 73.1772 70.1371 75.4286 72.9143 75.4286Z" stroke="#FF561D" stroke-width="2" stroke-linecap="round" stroke-linejoin="round"></path><path d="M75.9424 10.0571H12.0566C10.9521 10.0571 10.0566 10.9526 10.0566 12.0571V50.8C10.0566 51.9046 10.9521 52.8 12.0566 52.8H75.9424C77.0469 52.8 77.9424 51.9046 77.9424 50.8V12.0571C77.9424 10.9526 77.0469 10.0571 75.9424 10.0571Z" stroke="black" stroke-width="2" stroke-linecap="round" stroke-linejoin="round"></path><path d="M54.0442 31.328L50.499 27.7703" stroke="black" stroke-width="2" stroke-linecap="round"></path><path d="M54.0442 31.5417L50.499 35.0994" stroke="black" stroke-width="2" stroke-linecap="round"></path><path d="M33.9551 31.5417L37.5002 35.0994" stroke="black" stroke-width="2" stroke-linecap="round"></path><path d="M33.9551 31.328L37.5002 27.7703" stroke="black" stroke-width="2" stroke-linecap="round"></path><path d="M46.1237 24.1371L42.2266 38.72" stroke="#FF561D" stroke-width="2" stroke-linecap="round"></path><path d="M48.3995 77.9429L59.0852 70.4L48.3995 62.8571H10.0566V77.9429H48.3995Z" stroke="black" stroke-width="2" stroke-linecap="round" stroke-linejoin="round"></path><path d="M48.3994 63.0667V77.7333" stroke="black" stroke-width="2" stroke-linecap="round" stroke-linejoin="round"></path></svg> 