<?xml version="1.0" encoding="UTF-8"?> <svg xmlns="http://www.w3.org/2000/svg" width="71" height="71" viewBox="0 0 71 71" fill="none"><path fill-rule="evenodd" clip-rule="evenodd" d="M40.0291 42.2857H67.6863C68.3531 42.2857 68.9926 42.0208 69.4641 41.5493C69.9357 41.0778 70.2006 40.4383 70.2006 39.7714V3.31427C70.2006 2.64744 69.9357 2.00793 69.4641 1.53641C68.9926 1.06488 68.3531 0.799988 67.6863 0.799988H31.2291C30.5623 0.799988 29.9228 1.06488 29.4513 1.53641C28.9797 2.00793 28.7148 2.64744 28.7148 3.31427V23.4286H31.2291V3.31427H67.6863V39.7714H40.0291V42.2857Z" fill="black"></path><path d="M37.5148 30.9714H3.5719C2.1833 30.9714 1.05762 32.0971 1.05762 33.4857V67.4286C1.05762 68.8172 2.1833 69.9428 3.5719 69.9428H37.5148C38.9034 69.9428 40.029 68.8172 40.029 67.4286V33.4857C40.029 32.0971 38.9034 30.9714 37.5148 30.9714Z" stroke="black" stroke-width="2" stroke-linecap="round" stroke-linejoin="round"></path><path d="M54.4859 16.5143H44.4287V26.5714H54.4859V16.5143Z" fill="#FF561D"></path><path d="M54.4859 16.5143H44.4287V26.5714H54.4859V16.5143Z" stroke="#FF561D" stroke-width="2" stroke-linecap="round" stroke-linejoin="round"></path><path d="M8.26074 57.7109L17.5887 48.3828L23.7613 52.28L32.8253 42.9143" stroke="black" stroke-width="2" stroke-linecap="round" stroke-linejoin="round"></path><path d="M27.1934 21.5428L29.9088 24.2457L32.5614 21.5931" stroke="black" stroke-width="3" stroke-linecap="round" stroke-linejoin="round"></path></svg> 