<?xml version="1.0" encoding="UTF-8"?> <svg xmlns="http://www.w3.org/2000/svg" width="88" height="88" viewBox="0 0 88 88" fill="none"><path fill-rule="evenodd" clip-rule="evenodd" d="M46.6406 37.7143H58.4954C61.2149 37.7126 63.9081 38.247 66.4209 39.287C68.9337 40.3269 71.2169 41.852 73.1398 43.775C75.0628 45.698 76.5879 47.9811 77.6278 50.4939C78.6678 53.0068 79.2022 55.6999 79.2006 58.4194V58.4948C79.2022 61.2143 78.6678 63.9075 77.6278 66.4203C76.5879 68.9331 75.0628 71.2163 73.1398 73.1393C71.2169 75.0623 68.9337 76.5873 66.4209 77.6273C63.9081 78.6672 61.2149 79.2016 58.4954 79.2H58.42C52.9286 79.2 47.6622 77.0186 43.7792 73.1356C39.8963 69.2526 37.7148 63.9862 37.7148 58.4948V56.5714H40.2291V58.4571C40.2325 63.2906 42.154 67.9252 45.5718 71.343C48.9896 74.7608 53.6242 76.6824 58.4577 76.6857C63.2922 76.6857 67.9287 74.7652 71.3472 71.3467C74.7658 67.9282 76.6863 63.2916 76.6863 58.4571C76.6863 53.6226 74.7658 48.9861 71.3472 45.5676C67.9287 42.1491 63.2922 40.2286 58.4577 40.2286H46.6406V37.7143Z" fill="black"></path><path d="M58.4573 63.4857C61.2345 63.4857 63.4859 61.2343 63.4859 58.4571C63.4859 55.6799 61.2345 53.4286 58.4573 53.4286C55.6801 53.4286 53.4287 55.6799 53.4287 58.4571C53.4287 61.2343 55.6801 63.4857 58.4573 63.4857Z" fill="#FF561D"></path><path d="M58.4573 63.4857C61.2345 63.4857 63.4859 61.2343 63.4859 58.4571C63.4859 55.6799 61.2345 53.4286 58.4573 53.4286C55.6801 53.4286 53.4287 55.6799 53.4287 58.4571C53.4287 61.2343 55.6801 63.4857 58.4573 63.4857Z" stroke="#FF561D" stroke-width="2" stroke-linecap="round" stroke-linejoin="round"></path><path d="M41.6873 58.4571L38.9719 55.7543L36.3193 58.4068" stroke="black" stroke-width="3" stroke-linecap="round" stroke-linejoin="round"></path><path d="M29.5433 49.0286C40.305 49.0286 49.029 40.3045 49.029 29.5428C49.029 18.7812 40.305 10.0571 29.5433 10.0571C18.7817 10.0571 10.0576 18.7812 10.0576 29.5428C10.0576 40.3045 18.7817 49.0286 29.5433 49.0286Z" stroke="black" stroke-width="2" stroke-linecap="round" stroke-linejoin="round"></path><path d="M29.5432 30.1714C32.3204 30.1714 34.5718 27.92 34.5718 25.1428C34.5718 22.3656 32.3204 20.1143 29.5432 20.1143C26.766 20.1143 24.5146 22.3656 24.5146 25.1428C24.5146 27.92 26.766 30.1714 29.5432 30.1714Z" stroke="black" stroke-width="2"></path><path d="M38.3432 38.9714C38.3432 36.6375 37.416 34.3992 35.7657 32.7489C34.1154 31.0986 31.8771 30.1714 29.5432 30.1714C27.2093 30.1714 24.9709 31.0986 23.3206 32.7489C21.6703 34.3992 20.7432 36.6375 20.7432 38.9714" stroke="black" stroke-width="2" stroke-linecap="round"></path></svg> 