<svg width="194" height="171" viewBox="0 0 194 171" fill="none" xmlns="http://www.w3.org/2000/svg">
<g filter="url(#filter0_d)">
<path d="M77.914 123.899C77.1424 123.296 76.2847 122.812 75.3693 122.463C74.5127 122.162 73.6151 121.993 72.7074 121.962C70.7409 121.94 68.7806 122.187 66.8815 122.697C64.9395 123.181 63.0812 123.748 61.7085 124.216C60.3357 124.683 59.4316 125.034 59.4316 125.034C59.4316 125.034 60.3189 125.535 61.7252 126.136C63.4861 126.898 65.3283 127.458 67.2163 127.805C69.3501 128.223 71.5498 128.172 73.6617 127.655C74.635 127.447 75.5379 126.992 76.2829 126.334C77.028 125.676 77.5898 124.837 77.914 123.899Z" fill="#FF561D"/>
<path d="M71.9868 115.318C72.7092 117.052 73.8613 118.574 75.335 119.742C76.0335 120.284 76.8464 120.661 77.7123 120.844C78.6048 121.026 79.5315 120.939 80.3741 120.593C80.4322 118.824 79.9538 117.079 79.0013 115.586C78.0918 114.199 76.9608 112.969 75.6531 111.947C74.5171 111.035 73.3262 110.193 72.0872 109.426C71.0995 108.808 70.4131 108.458 70.4131 108.458C70.4131 108.458 70.4131 108.675 70.4131 109.059C70.4131 109.443 70.5135 109.96 70.6307 110.628C70.8893 112.241 71.3447 113.816 71.9868 115.318Z" fill="#FF561D"/>
<path d="M58.0243 119.826C58.9703 119.815 59.9013 119.588 60.7458 119.163C61.5903 118.737 62.3258 118.125 62.896 117.372C62.4507 116.586 61.8502 115.898 61.1309 115.35C60.4115 114.802 59.5882 114.405 58.7107 114.183C56.8161 113.678 54.8627 113.425 52.9014 113.432C50.9092 113.432 48.917 113.432 47.4271 113.432H44.9326C44.9326 113.432 45.1168 113.649 45.4516 113.983C45.7864 114.317 46.3054 114.768 46.9416 115.285C48.4726 116.543 50.1608 117.598 51.9639 118.423C53.848 119.352 55.9225 119.832 58.0243 119.826Z" fill="#FF561D"/>
<path d="M61.8086 112.197C62.3277 112.909 63.0148 113.483 63.809 113.867C64.6032 114.252 65.4801 114.435 66.3622 114.401C67.0589 112.724 67.1007 110.848 66.4794 109.143C65.8848 107.576 65.0489 106.112 64.0017 104.803C63.0475 103.501 62.0765 102.382 61.3734 101.598C61.0218 101.18 60.7204 100.863 60.5195 100.646L60.2015 100.312C60.2015 100.312 60.2015 100.513 60.0341 100.863C59.9078 101.364 59.8072 101.871 59.7327 102.382C59.4862 103.981 59.4862 105.608 59.7327 107.206C59.995 109.017 60.7088 110.733 61.8086 112.197Z" fill="#FF561D"/>
<path d="M37.935 98.2923C36.5622 97.8583 35.6582 97.6079 35.6582 97.6079C35.6582 97.6079 35.7419 97.8416 35.9261 98.2255C36.1102 98.6095 36.3948 99.127 36.7464 99.7613C37.0979 100.396 37.5332 101.13 38.0355 101.898C38.2866 102.282 38.5544 102.666 38.839 103.066L39.0567 103.367L39.3413 103.734L39.9272 104.469C41.3734 106.286 43.2976 107.668 45.4853 108.458C46.3913 108.791 47.3663 108.894 48.3221 108.757C49.278 108.62 50.1845 108.248 50.9597 107.674C50.5127 105.89 49.4372 104.326 47.9295 103.267C47.578 102.983 47.1762 102.716 46.7744 102.432L45.5021 101.631L44.146 100.846C43.7275 100.613 43.2922 100.396 42.8569 100.195C41.2609 99.4517 39.6166 98.8159 37.935 98.2923Z" fill="#FF561D"/>
<path d="M51.4294 101.731C51.6568 102.575 52.1078 103.343 52.7352 103.954C53.3626 104.565 54.1432 104.996 54.9953 105.203C56.1002 103.805 56.7278 102.091 56.7866 100.312C56.8308 98.8311 56.7299 97.3496 56.4852 95.8884C56.3844 95.1487 56.2277 94.4177 56.0165 93.7016C55.7988 92.9671 55.5812 92.2994 55.3636 91.7486C55.1459 91.1977 54.9618 90.7303 54.8279 90.4131L54.6437 89.9124L54.2921 90.4131C54.0745 90.747 53.8066 91.2144 53.5053 91.7986C52.7273 93.2834 52.1046 94.844 51.647 96.4559C51.5298 96.9066 51.4126 97.374 51.3122 97.8414C51.2251 98.2826 51.1636 98.7285 51.128 99.1768C51.0862 99.621 51.0862 100.068 51.128 100.512C51.1899 100.927 51.2908 101.335 51.4294 101.731Z" fill="#FF561D"/>
<path d="M35.8255 91.4476C36.153 91.8269 36.5114 92.1787 36.897 92.4992C37.2595 92.8121 37.6457 93.0967 38.0521 93.3505C38.8113 93.9033 39.6861 94.2776 40.611 94.4453C41.5359 94.613 42.4868 94.5697 43.3926 94.3187C43.5511 93.4279 43.4937 92.5121 43.2252 91.6479C43.1011 91.2386 42.9268 90.8461 42.7062 90.4794C42.4879 90.0985 42.2475 89.7307 41.9863 89.3777C40.7864 87.8741 39.3368 86.5868 37.7005 85.5717C36.2597 84.5577 34.7617 83.6269 33.2139 82.784L31.1045 81.6489C31.1045 81.6489 31.1045 81.8993 31.2384 82.3166C31.3724 82.734 31.523 83.3182 31.7741 83.9859C32.3118 85.7439 33.0712 87.4266 34.0342 88.9937C34.5694 89.8549 35.1682 90.6751 35.8255 91.4476Z" fill="#FF561D"/>
<path d="M46.3057 90.7468C46.6814 91.538 47.2587 92.2172 47.9798 92.7166C49.5886 91.8177 50.7878 90.3349 51.328 88.5768C51.4615 88.1669 51.5678 87.7486 51.6461 87.3248L51.7466 86.6905C51.7466 86.4902 51.7466 86.2732 51.847 86.0562C51.9468 85.2031 51.9804 84.3437 51.9475 83.4855C51.8915 82.032 51.7517 80.5829 51.5289 79.1454C51.4285 78.5778 51.328 78.1104 51.2611 77.7933C51.1941 77.4761 51.1606 77.2925 51.1606 77.2925L50.7421 77.7098C50.3692 78.0796 50.0171 78.4697 49.6874 78.8783C48.6488 80.1469 47.7507 81.5237 47.0088 82.9847C46.1913 84.6316 45.751 86.439 45.7197 88.2763C45.7238 88.7099 45.78 89.1414 45.8871 89.5616C45.9817 89.9711 46.1221 90.3687 46.3057 90.7468Z" fill="#FF561D"/>
<path d="M32.4442 75.5898C32.6786 76.0329 32.9473 76.457 33.2478 76.8584C33.5507 77.2483 33.8807 77.6165 34.2355 77.9602C34.8763 78.6331 35.6598 79.1547 36.5288 79.4868C37.3978 79.8189 38.3302 79.9532 39.2579 79.8798C39.5901 79.0427 39.7109 78.137 39.6095 77.2424C39.5582 76.8164 39.4629 76.3968 39.3249 75.9904C39.2176 75.5685 39.0776 75.1555 38.9063 74.7551C38.5031 73.9103 38.0031 73.1149 37.4164 72.3848L36.5123 71.2497C36.211 70.8657 35.8762 70.4985 35.5581 70.1313C34.2355 68.6957 32.7958 67.3603 31.7746 66.3754C30.7534 65.3905 30 64.7395 30 64.7395C30 64.7395 30 65.7411 30 67.2434C30.0781 68.1061 30.201 68.9641 30.3683 69.8141C30.4688 70.2815 30.5692 70.7656 30.6864 71.2497C30.7948 71.7476 30.9346 72.2382 31.1049 72.7186C31.4844 73.7053 31.9319 74.6647 32.4442 75.5898Z" fill="#FF561D"/>
<path d="M44.0795 78.7948C45.7943 78.2214 47.2329 77.031 48.1142 75.4562C48.3284 75.0932 48.5131 74.7136 48.6666 74.3211C48.8582 73.9367 49.0259 73.5409 49.1689 73.136C49.4324 72.3573 49.6339 71.5591 49.7716 70.7489C49.9222 69.9643 50.0896 69.1965 50.1733 68.4954C50.1733 68.1281 50.1733 67.7943 50.2738 67.4771C50.3742 67.1599 50.2738 66.8595 50.2738 66.5757C50.366 65.9675 50.4219 65.3543 50.4412 64.7395C50.4412 64.7395 49.7046 65.1568 48.6499 65.908L47.7961 66.5423C47.4948 66.7927 47.1934 67.0431 46.8921 67.3269C46.2383 67.9103 45.6284 68.5407 45.0673 69.2132C44.7827 69.5637 44.4981 69.9309 44.2302 70.3149L43.8619 70.8991L43.5438 71.5168C43.145 72.3157 42.8523 73.163 42.6733 74.0374C42.58 74.4594 42.5351 74.8906 42.5393 75.3227C42.5641 75.7402 42.6314 76.1541 42.7402 76.558C42.9809 77.4083 43.443 78.18 44.0795 78.7948Z" fill="#FF561D"/>
<path d="M37.1158 54.7239C36.6638 53.8559 36.1783 53.0546 35.7096 52.2367L34.4205 50.1501C33.6671 48.9315 33.1147 48.147 33.1147 48.147C33.1147 48.147 32.8301 49.0985 32.5287 50.5674C32.4283 51.3186 32.3111 52.2367 32.2441 53.1548C32.2441 53.6222 32.2441 54.123 32.2441 54.6238C32.2441 55.1245 32.2441 55.642 32.2441 56.1595C32.3257 57.1954 32.4937 58.2228 32.7464 59.231C33.0098 60.1979 33.404 61.1245 33.9183 61.9853C34.3805 62.7894 35.0229 63.476 35.7955 63.9915C36.568 64.507 37.4496 64.8373 38.3714 64.9566C38.6221 64.5768 38.8246 64.1675 38.9741 63.738C39.1323 63.3345 39.2446 62.9145 39.3089 62.486C39.4374 61.6297 39.3976 60.7566 39.1918 59.9154C39.0001 59.013 38.7255 58.1301 38.3714 57.2779C38.0031 56.3932 37.5511 55.4918 37.1158 54.7239Z" fill="#FF561D"/>
<path d="M47.9472 62.269C48.5396 61.6901 49.057 61.0396 49.4874 60.3327C49.9576 59.6698 50.3667 58.9658 50.7095 58.2294C50.8937 57.8788 51.0276 57.5283 51.195 57.1944L51.6303 56.1929C51.8982 55.5418 52.0991 54.9409 52.2832 54.4234C52.6683 53.4052 52.8524 52.7542 52.8524 52.7542C52.1548 52.9342 51.4674 53.1515 50.7932 53.4052C49.2861 53.9699 47.8616 54.7335 46.5577 55.6754C46.1768 55.9353 45.8133 56.2196 45.4695 56.5267C45.1348 56.8327 44.8163 57.1558 44.5153 57.4949C43.9145 58.1661 43.4128 58.9193 43.0253 59.7317C42.6825 60.4987 42.5057 61.3291 42.5063 62.1689C42.4949 62.5869 42.5514 63.0041 42.6737 63.4041C42.8114 63.8325 43.0027 64.2419 43.2429 64.6227C45.0392 64.412 46.7042 63.579 47.9472 62.269Z" fill="#FF561D"/>
<path d="M42.0699 49.3489C42.3313 49.0092 42.5506 48.6393 42.7229 48.2472C42.8882 47.8608 43.0117 47.4579 43.0912 47.0453C43.0912 46.628 43.2083 46.194 43.2586 45.7599C43.3127 44.8502 43.2621 43.9373 43.1079 43.039C42.9804 42.0775 42.7959 41.1243 42.5554 40.1846C42.0699 38.2816 41.551 36.4955 41.0655 35.1767C40.58 33.858 40.2786 32.8564 40.2786 32.8564C40.2786 32.8564 40.1447 33.0735 39.9438 33.4407C39.7429 33.8079 39.475 34.3755 39.157 35.11C38.3989 36.7872 37.8372 38.546 37.4828 40.3515C37.3166 41.3507 37.2215 42.3603 37.1982 43.3729C37.204 43.8757 37.2431 44.3776 37.3154 44.8752C37.3939 45.3539 37.5001 45.8277 37.6335 46.2941C37.8767 47.1833 38.3109 48.0092 38.9058 48.7146C39.5144 49.4504 40.2968 50.024 41.1827 50.3838C41.5243 50.0807 41.8228 49.7325 42.0699 49.3489Z" fill="#FF561D"/>
<path d="M57.9414 42.1043C58.1255 41.8372 58.2092 41.687 58.2092 41.687H57.6233C57.2215 41.687 56.7025 41.687 56.0664 41.8206C55.4302 41.9541 54.6768 42.0209 53.8733 42.2045C53.4715 42.288 53.0529 42.4048 52.6344 42.5216C52.2159 42.6385 51.8141 42.8054 51.3956 42.9724C50.5391 43.2963 49.7197 43.7104 48.9513 44.2076C48.2175 44.6756 47.5478 45.2367 46.9591 45.8769C46.6883 46.1983 46.4578 46.5514 46.2727 46.9285C46.0913 47.2978 45.9456 47.6835 45.8375 48.0803C45.7232 48.4821 45.6669 48.898 45.67 49.3156C45.7066 49.7628 45.7908 50.2049 45.9212 50.6343C46.8334 50.8113 47.7713 50.8113 48.6835 50.6343C49.5161 50.444 50.3168 50.1348 51.0607 49.7162C51.4123 49.4992 51.7639 49.2822 52.0987 49.0318L52.5674 48.6479L53.0529 48.2473C53.658 47.7398 54.2181 47.1813 54.7271 46.578C55.2296 46.0508 55.6993 45.4933 56.1333 44.9087L56.4347 44.4747L56.7193 44.0908C56.9202 43.8237 57.0876 43.5733 57.2382 43.3563C57.3889 43.1393 57.7907 42.3881 57.9414 42.1043Z" fill="#FF561D"/>
<path d="M47.528 37.0629C48.3192 36.6776 49.0033 36.1044 49.5202 35.3936C50.0383 34.7167 50.4193 33.9456 50.6418 33.1234C51.1143 31.3044 51.3118 29.4252 51.2278 27.5481C51.2278 27.064 51.2278 26.5799 51.2278 26.1125C51.2278 25.6451 51.2278 25.1944 51.2278 24.7437C51.2278 23.859 51.0604 23.0744 50.9934 22.3232C50.8427 20.9377 50.6921 20.0029 50.6921 20.0029L50.0894 20.4703C49.7034 20.9078 49.3402 21.3646 49.0012 21.8391C48.4936 22.5021 48.0241 23.1931 47.5949 23.909C47.095 24.7429 46.6477 25.607 46.2556 26.4964C45.8577 27.4252 45.5385 28.3856 45.3014 29.3676C45.1029 30.3223 45.0241 31.298 45.067 32.2721C45.0904 33.2036 45.3238 34.1179 45.7498 34.9472C46.1758 35.7765 46.7836 36.4996 47.528 37.0629Z" fill="#FF561D"/>
<path d="M61.5902 36.0611C62.2431 35.577 62.8458 35.1096 63.3815 34.6422C63.9172 34.1748 64.4195 33.7241 64.8045 33.3402C65.1896 32.9563 65.5411 32.6224 65.7588 32.3887L66.1103 32.0215C65.402 31.879 64.6868 31.7732 63.9675 31.7043C63.2498 31.6344 62.5287 31.6065 61.8078 31.6209C60.9332 31.6147 60.0596 31.6818 59.1962 31.8212C57.3924 32.0301 55.6677 32.6779 54.1738 33.7074C53.4984 34.2154 52.9296 34.8506 52.4997 35.577C52.1208 36.3378 51.9422 37.1823 51.9807 38.0309C53.6329 38.7434 55.4874 38.8382 57.204 38.2979C58.009 38.0652 58.7842 37.7403 59.5143 37.3298C60.2373 36.9596 60.9313 36.5355 61.5902 36.0611Z" fill="#FF561D"/>
<path d="M126.062 128.723C127.952 128.384 129.795 127.823 131.553 127.054C132.32 126.733 133.069 126.371 133.796 125.969C133.796 125.969 132.892 125.618 131.519 125.168C130.147 124.717 128.288 124.116 126.346 123.632C124.447 123.127 122.486 122.886 120.52 122.914C119.612 122.936 118.713 123.105 117.859 123.415C116.962 123.752 116.125 124.231 115.381 124.834C115.71 125.769 116.276 126.603 117.024 127.255C117.772 127.908 118.677 128.356 119.65 128.556C121.748 129.085 123.938 129.142 126.062 128.723Z" fill="#FF561D"/>
<path d="M115.614 121.779C116.479 121.602 117.292 121.231 117.992 120.694C119.458 119.518 120.609 117.998 121.34 116.27C121.983 114.734 122.433 113.125 122.679 111.479C122.796 110.828 122.847 110.277 122.897 109.91C122.947 109.543 122.897 109.309 122.897 109.309C122.897 109.309 122.227 109.66 121.223 110.277C119.984 111.044 118.793 111.886 117.657 112.798C116.358 113.83 115.229 115.058 114.309 116.437C113.37 117.936 112.898 119.678 112.953 121.445C113.782 121.834 114.714 121.951 115.614 121.779Z" fill="#FF561D"/>
<path d="M140.375 114.384C138.414 114.385 136.462 114.637 134.566 115.135C133.7 115.365 132.89 115.765 132.182 116.313C131.475 116.861 130.885 117.544 130.447 118.323C131.015 119.079 131.75 119.693 132.595 120.119C133.44 120.545 134.372 120.77 135.319 120.777C137.417 120.798 139.491 120.335 141.379 119.425C143.183 118.594 144.871 117.534 146.402 116.27C147.038 115.769 147.54 115.285 147.892 114.968L148.427 114.434H145.916C144.359 114.367 142.367 114.334 140.375 114.384Z" fill="#FF561D"/>
<path d="M126.998 115.336C127.88 115.379 128.759 115.202 129.554 114.82C130.349 114.438 131.036 113.863 131.552 113.149C132.639 111.676 133.336 109.954 133.578 108.141C133.824 106.542 133.824 104.916 133.578 103.317C133.504 102.811 133.403 102.31 133.276 101.815C133.176 101.447 133.109 101.247 133.109 101.247L132.791 101.598C132.573 101.815 132.289 102.132 131.937 102.532C131.234 103.334 130.263 104.435 129.309 105.737C128.283 107.078 127.476 108.571 126.915 110.161C126.304 111.838 126.334 113.68 126.998 115.336Z" fill="#FF561D"/>
<path d="M153.35 105.42C153.551 105.17 153.735 104.919 153.936 104.686L154.204 104.302L154.438 104.001C154.723 103.617 154.991 103.217 155.242 102.833C155.744 102.065 156.179 101.347 156.531 100.713C156.882 100.078 157.167 99.5442 157.351 99.1603C157.535 98.7763 157.619 98.5593 157.619 98.5593C157.619 98.5593 156.715 98.8097 155.342 99.2437C153.663 99.7684 152.019 100.398 150.42 101.13C149.985 101.33 149.55 101.547 149.114 101.781L147.775 102.582C147.34 102.849 146.904 103.1 146.503 103.384C146.101 103.667 145.699 103.918 145.348 104.201C143.84 105.26 142.764 106.824 142.317 108.608C143.091 109.187 143.997 109.562 144.954 109.699C145.911 109.836 146.887 109.731 147.792 109.393C149.978 108.608 151.903 107.233 153.35 105.42Z" fill="#FF561D"/>
<path d="M141.63 97.3237C141.167 95.7352 140.545 94.1973 139.772 92.7332C139.534 92.2906 139.271 91.8614 138.985 91.4479L138.634 90.9304L138.45 91.4312C138.316 91.7484 138.115 92.1991 137.914 92.7666C137.713 93.3342 137.479 93.9852 137.261 94.7364C137.05 95.4469 136.893 96.1723 136.792 96.9064C136.547 98.3732 136.446 99.8604 136.491 101.347C136.546 103.121 137.174 104.831 138.282 106.221C139.136 106.018 139.918 105.587 140.546 104.976C141.174 104.365 141.624 103.595 141.848 102.749C141.996 102.332 142.102 101.901 142.166 101.464C142.208 101.014 142.208 100.561 142.166 100.111C142.131 99.6631 142.069 99.2172 141.982 98.776C141.865 98.2252 141.748 97.7744 141.63 97.3237Z" fill="#FF561D"/>
<path d="M162.038 83.2518C162.139 82.8345 162.172 82.6008 162.172 82.6008L160.063 83.7192C158.514 84.5461 157.011 85.4543 155.559 86.4402C153.937 87.4666 152.494 88.7525 151.29 90.2461C151.039 90.6133 150.771 90.9639 150.554 91.3478C150.345 91.7243 150.177 92.1216 150.052 92.533C149.775 93.3958 149.718 94.3135 149.884 95.2039C150.784 95.4521 151.727 95.5001 152.647 95.3443C153.567 95.1885 154.441 94.8328 155.208 94.3024C155.615 94.0428 156.001 93.7526 156.363 93.4344C156.753 93.1183 157.111 92.7662 157.434 92.3828C158.097 91.6026 158.696 90.7709 159.226 89.8956C160.19 88.3291 160.95 86.6462 161.486 84.8877C161.754 84.2701 161.921 83.6692 162.038 83.2518Z" fill="#FF561D"/>
<path d="M145.28 93.6683C145.998 93.1655 146.574 92.4873 146.954 91.6986C147.148 91.3174 147.295 90.9137 147.389 90.4967C147.51 90.0845 147.572 89.6575 147.573 89.2281C147.536 87.3916 147.096 85.5856 146.284 83.9365C145.552 82.453 144.659 81.0537 143.623 79.7633C143.204 79.2625 142.852 78.8619 142.585 78.5781L142.166 78.2275C142.123 78.3982 142.09 78.5709 142.066 78.745C142.066 79.0622 141.898 79.5296 141.798 80.0971C141.575 81.5346 141.435 82.9837 141.379 84.4372C141.347 85.2899 141.38 86.1437 141.48 86.9912L141.58 87.6422L141.681 88.2766C141.763 88.6995 141.869 89.1175 141.999 89.5285C142.533 91.2699 143.704 92.7475 145.28 93.6683Z" fill="#FF561D"/>
<path d="M157.719 71.083C157.401 71.4335 157.066 71.8008 156.765 72.1847L155.844 73.3198C155.272 74.0568 154.778 74.8513 154.371 75.6902C154.191 76.0907 154.04 76.5035 153.919 76.9254C153.784 77.3328 153.689 77.752 153.634 78.1774C153.531 79.072 153.652 79.9781 153.986 80.8149C154.913 80.8883 155.846 80.754 156.715 80.4218C157.584 80.0897 158.367 79.5681 159.008 78.8952C159.363 78.5574 159.693 78.1948 159.996 77.8102C160.28 77.4095 160.548 76.9755 160.799 76.5415C161.289 75.6226 161.709 74.6685 162.055 73.6871C162.241 73.2102 162.386 72.7189 162.49 72.2181C162.608 71.734 162.708 71.2499 162.808 70.7825C162.976 69.9382 163.099 69.0857 163.177 68.2285C163.26 66.7095 163.177 65.7246 163.177 65.7246C163.177 65.7246 162.44 66.3422 161.402 67.3939C160.364 68.4455 159.042 69.6307 157.719 71.083Z" fill="#FF561D"/>
<path d="M150.537 77.5097C150.646 77.1002 150.713 76.6807 150.738 76.2578C150.734 75.8261 150.689 75.3957 150.604 74.9724C150.425 74.0981 150.132 73.2507 149.733 72.4518C149.633 72.2515 149.532 72.0512 149.415 71.8509L149.047 71.2666C148.779 70.8827 148.494 70.5155 148.21 70.1482C147.656 69.4796 147.064 68.8442 146.435 68.2452C146.134 67.9615 145.832 67.7111 145.531 67.4774L144.677 66.8431C144.1 66.4157 143.496 66.0254 142.869 65.6746C142.869 65.6746 142.869 66.3923 142.986 67.4941C142.986 67.7612 142.986 68.0616 142.986 68.3788L143.087 69.397C143.087 70.0981 143.338 70.866 143.472 71.6506C143.615 72.4667 143.822 73.2704 144.091 74.0543C144.237 74.4581 144.405 74.8537 144.593 75.2395C144.747 75.6266 144.932 76.0006 145.146 76.3579C146.033 77.9275 147.47 79.1161 149.181 79.6965C149.807 79.0907 150.273 78.3393 150.537 77.5097Z" fill="#FF561D"/>
<path d="M154.069 60.8671C153.843 61.6986 153.781 62.5659 153.885 63.4211C153.947 63.85 154.06 64.2701 154.22 64.673C154.366 65.1039 154.569 65.5137 154.823 65.8916C155.755 65.7657 156.645 65.4239 157.421 64.8934C158.197 64.3629 158.838 63.6586 159.292 62.8368C159.804 61.9804 160.198 61.0597 160.464 60.0992C160.716 59.0908 160.884 58.0635 160.967 57.0277C160.967 56.5103 160.967 55.9761 160.967 55.4753C160.967 54.9745 160.967 54.4904 160.967 54.0064C160.967 53.0549 160.782 52.1702 160.682 51.4357C160.381 49.95 160.096 48.9985 160.096 48.9985C160.096 48.9985 159.544 49.7831 158.79 51.0017C158.422 51.6026 157.97 52.3037 157.501 53.0883C157.032 53.8728 156.547 54.7575 156.095 55.5755C155.643 56.3934 155.191 57.2448 154.823 58.2129C154.488 59.0721 154.236 59.9608 154.069 60.8671Z" fill="#FF561D"/>
<path d="M150.252 60.6004C149.862 59.7997 149.36 59.0579 148.762 58.397C148.461 58.0631 148.143 57.746 147.808 57.4288C147.46 57.1268 147.097 56.8426 146.72 56.5775C145.412 55.6418 143.989 54.8788 142.484 54.3073C141.832 54.0558 141.167 53.8385 140.492 53.6562C140.492 53.6562 140.676 54.3407 141.061 55.3255C141.246 55.843 141.43 56.4606 141.714 57.095L142.166 58.0631C142.334 58.397 142.468 58.7475 142.652 59.1148C142.984 59.8657 143.382 60.5862 143.84 61.2681C144.271 61.9804 144.788 62.6364 145.381 63.2212C146.631 64.5074 148.297 65.3115 150.085 65.4914C150.325 65.1165 150.516 64.7126 150.654 64.2895C150.775 63.8835 150.832 63.4611 150.822 63.0376C150.798 62.1953 150.605 61.3663 150.252 60.6004Z" fill="#FF561D"/>
<path d="M152.997 33.8081C152.997 33.8081 152.679 34.6761 152.21 36.0449C151.742 37.4137 151.206 39.1832 150.72 41.0528C150.48 41.9925 150.296 42.9457 150.168 43.9072C150.012 44.8165 149.961 45.7407 150.017 46.6615C150.017 47.0955 150.017 47.5295 150.185 47.9469C150.264 48.3594 150.388 48.7624 150.553 49.1487C150.725 49.5462 150.944 49.9217 151.206 50.2672C151.463 50.6381 151.761 50.9796 152.093 51.2854C152.976 50.9196 153.757 50.347 154.37 49.6161C154.965 48.9047 155.399 48.0733 155.642 47.179C155.778 46.713 155.884 46.2391 155.96 45.7601C156.033 45.2625 156.073 44.7606 156.078 44.2578C156.058 43.2284 155.963 42.2019 155.793 41.1863C155.444 39.3795 154.882 37.6201 154.119 35.9448C153.818 35.2604 153.533 34.7095 153.349 34.2755L152.997 33.8081Z" fill="#FF561D"/>
<path d="M147.005 48.0469C146.824 47.6676 146.593 47.3139 146.318 46.9953C145.735 46.3256 145.065 45.7362 144.326 45.2425C143.558 44.7454 142.738 44.3313 141.882 44.0073C141.464 43.8403 141.045 43.6901 140.643 43.5733C140.241 43.4564 139.806 43.3396 139.404 43.2394C138.584 43.0558 137.847 42.9389 137.211 42.8555C136.575 42.772 136.056 42.7386 135.671 42.7219H135.068C135.068 42.7219 135.152 42.8889 135.319 43.1559C135.487 43.423 135.721 43.8236 136.023 44.2743C136.324 44.7251 136.341 44.7417 136.542 45.0088L136.826 45.4095L137.128 45.8268C137.559 46.4398 138.029 47.0252 138.534 47.5795C139.042 48.1832 139.602 48.7417 140.208 49.2488C140.362 49.3913 140.524 49.525 140.693 49.6494L141.162 50.0333C141.494 50.2827 141.84 50.5112 142.2 50.7178C142.941 51.143 143.743 51.4526 144.577 51.6359C145.49 51.8128 146.427 51.8128 147.34 51.6359C147.47 51.2121 147.554 50.7756 147.591 50.3338C147.594 49.9162 147.538 49.5003 147.423 49.0986C147.32 48.7349 147.179 48.3826 147.005 48.0469Z" fill="#FF561D"/>
<path d="M145.749 38.0311C146.494 37.467 147.103 36.7441 147.532 35.9152C147.96 35.0864 148.198 34.1725 148.227 33.2403C148.252 32.265 148.162 31.2902 147.959 30.3358C147.722 29.3484 147.403 28.3824 147.005 27.4479C146.613 26.5585 146.165 25.6944 145.665 24.8605C145.232 24.1472 144.763 23.4563 144.259 22.7906C143.841 22.2064 143.439 21.7557 143.171 21.4218L142.736 20.9377C142.736 20.9377 142.568 21.8725 142.418 23.2747C142.334 23.9758 142.25 24.7938 142.183 25.6952C142.183 26.1292 142.183 26.5799 142.183 27.0473C142.183 27.5147 142.183 28.0155 142.183 28.4996C142.098 30.3713 142.296 32.245 142.769 34.0582C142.971 34.8889 143.335 35.6718 143.841 36.3618C144.343 37.0544 144.995 37.625 145.749 38.0311Z" fill="#FF561D"/>
<path d="M139.136 34.6925C137.643 33.6577 135.918 33.0042 134.113 32.7896C133.25 32.6502 132.376 32.5831 131.502 32.5892C130.681 32.5892 129.928 32.5892 129.275 32.5892C128.542 32.6955 127.816 32.8404 127.099 33.0233L127.45 33.3905L128.388 34.342C128.789 34.7426 129.292 35.1766 129.827 35.644C130.398 36.1492 130.996 36.6229 131.619 37.0629C132.28 37.5484 132.974 37.989 133.695 38.3816C134.422 38.7935 135.198 39.1131 136.005 39.3331C137.72 39.8826 139.578 39.7876 141.228 39.066C141.273 38.2063 141.094 37.3496 140.709 36.5788C140.316 35.8514 139.781 35.21 139.136 34.6925Z" fill="#FF561D"/>
<path d="M55.8988 28.9171C56.5348 28.9421 57.1713 28.8804 57.7906 28.7334C58.5855 28.5068 59.3377 28.1515 60.0172 27.6818C60.3563 27.4339 60.6805 27.1664 60.9881 26.8805C61.3102 26.5955 61.6123 26.2887 61.8922 25.9624C62.4967 25.3112 63.0561 24.6196 63.5663 23.8925C64.5373 22.457 65.3744 20.9713 65.977 19.8529C66.2784 19.302 66.5128 18.8346 66.6802 18.5008L66.8308 18.1168V18H66.6969H66.2616C65.7425 18.0684 65.2281 18.1687 64.7214 18.3005C63.122 18.7053 61.5807 19.3111 60.1343 20.1033C58.4635 20.9654 57.0186 22.206 55.9156 23.7256C55.4038 24.4476 55.0606 25.2746 54.9111 26.1461C54.7445 26.8768 54.7445 27.6355 54.9111 28.3662" fill="#FF561D"/>
<path d="M137.412 29.3513C137.611 28.6109 137.646 27.8361 137.513 27.0811C137.345 26.2202 137.003 25.4023 136.508 24.6773C135.41 23.153 133.964 21.9113 132.29 21.055C130.827 20.2681 129.268 19.6733 127.652 19.2856C127.016 19.1353 126.48 19.0352 126.112 18.9851H125.693H125.56V19.1186C125.56 19.1186 125.66 19.3357 125.744 19.5026L126.464 20.8547C127.194 22.2378 127.999 23.5807 128.874 24.8776C129.389 25.6068 129.948 26.3037 130.548 26.9642C130.828 27.2852 131.131 27.5864 131.452 27.8656C131.752 28.1603 132.077 28.4284 132.423 28.6669C133.093 29.1358 133.841 29.4808 134.633 29.6852C135.274 29.8422 135.934 29.9041 136.592 29.8688" fill="#FF561D"/>
</g>
<path d="M93.0205 72.3027C93.0205 72.3027 96.9836 72.0084 96.9836 67.3584C96.9836 62.7088 93.7411 60.4404 89.6333 60.4404H82.0726H81.8505H76.1172V86.4235H81.8505H82.0726H89.6333C89.6333 86.4235 97.8842 86.6846 97.8842 78.7546C97.8847 78.7546 98.2444 72.3027 93.0205 72.3027ZM82.0726 65.059H88.6605H89.6335C89.6335 65.059 91.4711 65.059 91.4711 67.7621C91.4711 70.4652 90.3899 70.857 89.165 70.857H82.0726V65.059ZM89.2848 81.8062H82.0726V74.862H89.6333C89.6333 74.862 92.3717 74.827 92.3717 78.4305C92.3717 81.4353 90.369 81.7761 89.2848 81.8062ZM108.889 67.0518C119.402 67.0518 117.93 78.33 117.93 78.33H104.471C104.471 83.1576 109.042 82.8519 109.042 82.8519C113.359 82.8519 113.207 80.0569 113.207 80.0569H117.778C117.778 87.4752 108.889 86.967 108.889 86.967C98.2243 86.967 98.909 77.0341 98.909 77.0341C98.909 77.0341 98.9001 67.0518 108.889 67.0518ZM112.952 74.862C112.952 74.862 113.003 70.8565 108.991 70.857C104.978 70.857 104.42 74.862 104.42 74.862H112.952ZM103.301 61.9431H114.018V65.6446H103.301V61.9431Z" fill="black"/>
<defs>
<filter id="filter0_d" x="0" y="0" width="193.214" height="171" filterUnits="userSpaceOnUse" color-interpolation-filters="sRGB">
<feFlood flood-opacity="0" result="BackgroundImageFix"/>
<feColorMatrix in="SourceAlpha" type="matrix" values="0 0 0 0 0 0 0 0 0 0 0 0 0 0 0 0 0 0 127 0"/>
<feOffset dy="12"/>
<feGaussianBlur stdDeviation="15"/>
<feColorMatrix type="matrix" values="0 0 0 0 0 0 0 0 0 0 0 0 0 0 0 0 0 0 0.15 0"/>
<feBlend mode="normal" in2="BackgroundImageFix" result="effect1_dropShadow"/>
<feBlend mode="normal" in="SourceGraphic" in2="effect1_dropShadow" result="shape"/>
</filter>
</defs>
</svg>
