<svg width="194" height="171" viewBox="0 0 194 171" fill="none" xmlns="http://www.w3.org/2000/svg">
<g filter="url(#filter0_d)">
<path d="M78.1268 123.898C77.3553 123.296 76.4975 122.812 75.5822 122.463C74.7256 122.162 73.828 121.993 72.9203 121.962C70.9538 121.94 68.9935 122.187 67.0944 122.697C65.1524 123.181 63.2941 123.748 61.9213 124.216C60.5486 124.683 59.6445 125.034 59.6445 125.034C59.6445 125.034 60.5318 125.534 61.9381 126.135C63.6989 126.898 65.5412 127.458 67.4292 127.805C69.563 128.223 71.7627 128.172 73.8746 127.654C74.8478 127.447 75.7508 126.992 76.4958 126.334C77.2408 125.676 77.8027 124.837 78.1268 123.898Z" fill="#FF561D"/>
<path d="M72.2006 115.318C72.923 117.052 74.0751 118.574 75.5489 119.742C76.2474 120.284 77.0602 120.661 77.9261 120.844C78.8187 121.025 79.7453 120.938 80.588 120.593C80.646 118.824 80.1676 117.079 79.2152 115.585C78.3057 114.198 77.1746 112.969 75.867 111.946C74.7309 111.034 73.5401 110.193 72.3011 109.426C71.3133 108.808 70.627 108.458 70.627 108.458C70.627 108.458 70.627 108.675 70.627 109.058C70.627 109.442 70.7274 109.96 70.8446 110.628C71.1031 112.24 71.5585 113.816 72.2006 115.318Z" fill="#FF561D"/>
<path d="M58.2381 119.826C59.1842 119.815 60.1151 119.588 60.9596 119.163C61.8041 118.737 62.5396 118.125 63.1098 117.372C62.6645 116.586 62.0641 115.898 61.3447 115.35C60.6254 114.802 59.802 114.405 58.9245 114.183C57.03 113.678 55.0765 113.425 53.1153 113.432C51.1231 113.432 49.1309 113.432 47.6409 113.432H45.1465C45.1465 113.432 45.3306 113.649 45.6655 113.983C46.0003 114.317 46.5193 114.768 47.1554 115.285C48.6865 116.543 50.3747 117.598 52.1778 118.423C54.0618 119.352 56.1364 119.832 58.2381 119.826Z" fill="#FF561D"/>
<path d="M62.0225 112.197C62.5416 112.909 63.2286 113.483 64.0228 113.867C64.817 114.251 65.694 114.435 66.5761 114.401C67.2728 112.724 67.3146 110.848 66.6933 109.142C66.0987 107.576 65.2627 106.112 64.2156 104.802C63.2613 103.5 62.2903 102.382 61.5872 101.597C61.2357 101.18 60.9343 100.863 60.7334 100.646L60.4153 100.312C60.4153 100.312 60.4153 100.512 60.2479 100.863C60.1216 101.364 60.0211 101.871 59.9466 102.382C59.7001 103.981 59.7001 105.607 59.9466 107.206C60.2089 109.017 60.9226 110.733 62.0225 112.197Z" fill="#FF561D"/>
<path d="M38.1489 98.2921C36.7761 97.8581 35.8721 97.6077 35.8721 97.6077C35.8721 97.6077 35.9558 97.8414 36.1399 98.2253C36.3241 98.6092 36.6087 99.1267 36.9602 99.761C37.3118 100.395 37.7471 101.13 38.2493 101.898C38.5004 102.282 38.7683 102.666 39.0529 103.066L39.2705 103.367L39.5551 103.734L40.1411 104.468C41.5872 106.286 43.5115 107.667 45.6992 108.458C46.6052 108.791 47.5802 108.894 48.536 108.757C49.4918 108.62 50.3983 108.248 51.1735 107.673C50.7265 105.889 49.651 104.325 48.1434 103.267C47.7918 102.983 47.39 102.716 46.9882 102.432L45.7159 101.631L44.3599 100.846C43.9413 100.612 43.5061 100.395 43.0708 100.195C41.4748 99.4515 39.8304 98.8157 38.1489 98.2921Z" fill="#FF561D"/>
<path d="M51.6413 101.731C51.8687 102.575 52.3197 103.343 52.9471 103.954C53.5745 104.565 54.3551 104.996 55.2072 105.203C56.3121 103.805 56.9397 102.091 56.9985 100.312C57.0427 98.8311 56.9418 97.3496 56.6971 95.8883C56.5963 95.1487 56.4396 94.4177 56.2284 93.7016C56.0108 92.9671 55.7931 92.2994 55.5755 91.7486C55.3578 91.1977 55.1737 90.7303 55.0398 90.4131L54.8556 89.9124L54.504 90.4131C54.2864 90.747 54.0185 91.2144 53.7172 91.7986C52.9392 93.2834 52.3165 94.844 51.8589 96.4559C51.7417 96.9066 51.6246 97.374 51.5241 97.8414C51.437 98.2826 51.3755 98.7285 51.34 99.1768C51.2981 99.621 51.2981 100.068 51.34 100.512C51.4018 100.927 51.5027 101.335 51.6413 101.731Z" fill="#FF561D"/>
<path d="M36.0394 91.4473C36.3669 91.8266 36.7253 92.1784 37.1108 92.499C37.4734 92.8119 37.8596 93.0965 38.266 93.3503C39.0251 93.9031 39.8999 94.2774 40.8248 94.445C41.7497 94.6127 42.7007 94.5694 43.6064 94.3185C43.7649 93.4276 43.7075 92.5119 43.439 91.6476C43.3149 91.2383 43.1406 90.8458 42.92 90.4791C42.7017 90.0983 42.4613 89.7304 42.2002 89.3774C41.0002 87.8738 39.5506 86.5865 37.9144 85.5715C36.4736 84.5574 34.9755 83.6267 33.4278 82.7838L31.3184 81.6487C31.3184 81.6487 31.3184 81.8991 31.4523 82.3164C31.5862 82.7337 31.7369 83.318 31.988 83.9857C32.5256 85.7436 33.2851 87.4264 34.2481 88.9935C34.7833 89.8546 35.382 90.6748 36.0394 91.4473Z" fill="#FF561D"/>
<path d="M46.5195 90.7468C46.8953 91.538 47.4725 92.2172 48.1937 92.7166C49.8024 91.8177 51.0017 90.3349 51.5419 88.5768C51.6754 88.1669 51.7816 87.7486 51.86 87.3248L51.9604 86.6905C51.9604 86.4902 51.9604 86.2732 52.0609 86.0562C52.1606 85.2031 52.1942 84.3437 52.1613 83.4855C52.1053 82.032 51.9656 80.5829 51.7428 79.1454C51.6423 78.5778 51.5419 78.1104 51.4749 77.7933C51.408 77.4761 51.3745 77.2925 51.3745 77.2925L50.956 77.7098C50.5831 78.0796 50.231 78.4697 49.9013 78.8783C48.8627 80.1469 47.9646 81.5237 47.2227 82.9847C46.4051 84.6316 45.9648 86.439 45.9336 88.2763C45.9377 88.7099 45.9939 89.1414 46.101 89.5616C46.1956 89.9711 46.3359 90.3686 46.5195 90.7468Z" fill="#FF561D"/>
<path d="M32.6581 75.59C32.8925 76.0331 33.1611 76.4573 33.4617 76.8587C33.7645 77.2486 34.0946 77.6167 34.4494 77.9604C35.0902 78.6333 35.8737 79.1549 36.7427 79.487C37.6116 79.8192 38.5441 79.9534 39.4718 79.88C39.804 79.0429 39.9247 78.1372 39.8233 77.2426C39.7721 76.8166 39.6767 76.397 39.5387 75.9906C39.4314 75.5687 39.2915 75.1557 39.1202 74.7554C38.717 73.9106 38.217 73.1151 37.6302 72.385L36.7262 71.2499C36.4249 70.866 36.09 70.4987 35.772 70.1315C34.4494 68.6959 33.0097 67.3605 31.9884 66.3756C30.9672 65.3908 30.2139 64.7397 30.2139 64.7397C30.2139 64.7397 30.2139 65.7413 30.2139 67.2437C30.292 68.1063 30.4149 68.9644 30.5822 69.8143C30.6826 70.2817 30.7831 70.7658 30.9003 71.2499C31.0087 71.7478 31.1484 72.2385 31.3188 72.7189C31.6983 73.7056 32.1458 74.6649 32.6581 75.59Z" fill="#FF561D"/>
<path d="M44.2934 78.795C46.0081 78.2217 47.4468 77.0312 48.328 75.4565C48.5423 75.0934 48.727 74.7138 48.8805 74.3214C49.072 73.9369 49.2398 73.5411 49.3827 73.1362C49.6463 72.3575 49.8478 71.5594 49.9854 70.7491C50.1361 69.9646 50.3035 69.1967 50.3872 68.4956C50.3872 68.1284 50.3872 67.7945 50.4877 67.4774C50.5881 67.1602 50.4877 66.8597 50.4877 66.5759C50.5799 65.9677 50.6358 65.3546 50.6551 64.7397C50.6551 64.7397 49.9185 65.1571 48.8638 65.9082L48.01 66.5426C47.7086 66.793 47.4073 67.0433 47.1059 67.3271C46.4522 67.9105 45.8423 68.541 45.2811 69.2134C44.9965 69.5639 44.7119 69.9312 44.4441 70.3151L44.0758 70.8994L43.7577 71.517C43.3589 72.3159 43.0662 73.1632 42.8871 74.0376C42.7939 74.4596 42.7489 74.8908 42.7532 75.3229C42.7779 75.7404 42.8453 76.1543 42.9541 76.5582C43.1948 77.4086 43.6569 78.1803 44.2934 78.795Z" fill="#FF561D"/>
<path d="M37.3297 54.7239C36.8777 53.8559 36.3922 53.0546 35.9234 52.2367L34.6344 50.1501C33.881 48.9315 33.3286 48.147 33.3286 48.147C33.3286 48.147 33.044 49.0985 32.7426 50.5674C32.6422 51.3186 32.525 52.2367 32.458 53.1548C32.458 53.6222 32.458 54.123 32.458 54.6238C32.458 55.1245 32.458 55.642 32.458 56.1595C32.5396 57.1954 32.7076 58.2228 32.9602 59.2309C33.2236 60.1978 33.6179 61.1245 34.1321 61.9852C34.5943 62.7894 35.2368 63.476 36.0093 63.9915C36.7819 64.5069 37.6635 64.8372 38.5853 64.9565C38.836 64.5768 39.0384 64.1675 39.188 63.738C39.3462 63.3345 39.4585 62.9145 39.5228 62.486C39.6513 61.6297 39.6115 60.7566 39.4056 59.9153C39.214 59.0129 38.9394 58.1301 38.5853 57.2779C38.217 56.3932 37.765 55.4918 37.3297 54.7239Z" fill="#FF561D"/>
<path d="M48.1601 62.2692C48.7525 61.6904 49.2699 61.0399 49.7003 60.3329C50.1705 59.67 50.5795 58.966 50.9224 58.2296C51.1066 57.8791 51.2405 57.5285 51.4079 57.1947L51.8432 56.1931C52.111 55.5421 52.3119 54.9411 52.4961 54.4237C52.8811 53.4054 53.0653 52.7544 53.0653 52.7544C52.3677 52.9344 51.6803 53.1517 51.0061 53.4054C49.499 53.9702 48.0744 54.7337 46.7706 55.6756C46.3897 55.9355 46.0262 56.2199 45.6824 56.527C45.3477 56.8329 45.0292 57.1561 44.7282 57.4951C44.1274 58.1663 43.6257 58.9195 43.2382 59.732C42.8954 60.499 42.7186 61.3294 42.7192 62.1691C42.7078 62.5872 42.7643 63.0043 42.8866 63.4044C43.0243 63.8328 43.2156 64.2422 43.4558 64.6229C45.2521 64.4122 46.9171 63.5792 48.1601 62.2692Z" fill="#FF561D"/>
<path d="M42.2838 49.3489C42.5452 49.0092 42.7644 48.6393 42.9367 48.2471C43.1021 47.8608 43.2256 47.4578 43.305 47.0453C43.305 46.6279 43.4222 46.1939 43.4724 45.7599C43.5266 44.8502 43.476 43.9373 43.3218 43.039C43.1943 42.0775 43.0098 41.1243 42.7693 40.1846C42.2838 38.2816 41.7648 36.4955 41.2793 35.1767C40.7938 33.858 40.4925 32.8564 40.4925 32.8564C40.4925 32.8564 40.3586 33.0735 40.1577 33.4407C39.9568 33.8079 39.6889 34.3755 39.3708 35.11C38.6128 36.7872 38.051 38.546 37.6967 40.3515C37.5304 41.3506 37.4353 42.3603 37.4121 43.3729C37.4179 43.8757 37.457 44.3776 37.5293 44.8752C37.6077 45.3539 37.7139 45.8277 37.8474 46.2941C38.0906 47.1833 38.5247 48.0092 39.1197 48.7145C39.7283 49.4504 40.5107 50.024 41.3965 50.3838C41.7382 50.0807 42.0367 49.7325 42.2838 49.3489Z" fill="#FF561D"/>
<path d="M58.1552 42.1043C58.3394 41.8372 58.4231 41.687 58.4231 41.687H57.8371C57.4354 41.687 56.9164 41.687 56.2802 41.8206C55.644 41.9541 54.8907 42.0209 54.0871 42.2045C53.6853 42.288 53.2668 42.4048 52.8483 42.5216C52.4297 42.6385 52.0279 42.8054 51.6094 42.9724C50.753 43.2963 49.9336 43.7104 49.1652 44.2076C48.4313 44.6756 47.7617 45.2367 47.173 45.8769C46.9021 46.1983 46.6716 46.5514 46.4866 46.9285C46.3052 47.2978 46.1594 47.6835 46.0513 48.0803C45.9371 48.4821 45.8807 48.898 45.8839 49.3156C45.9205 49.7628 46.0047 50.2049 46.135 50.6343C47.0473 50.8113 47.9851 50.8113 48.8973 50.6343C49.7299 50.444 50.5306 50.1348 51.2746 49.7162C51.6262 49.4992 51.9777 49.2822 52.3125 49.0318L52.7813 48.6479L53.2668 48.2473C53.8718 47.7398 54.4319 47.1813 54.9409 46.578C55.4435 46.0508 55.9131 45.4933 56.3472 44.9087L56.6485 44.4747L56.9331 44.0908C57.134 43.8237 57.3014 43.5733 57.4521 43.3563C57.6028 43.1393 58.0046 42.3881 58.1552 42.1043Z" fill="#FF561D"/>
<path d="M47.7418 37.0627C48.533 36.6774 49.2171 36.1041 49.734 35.3934C50.2522 34.7164 50.6331 33.9453 50.8557 33.1232C51.3282 31.3041 51.5257 29.425 51.4416 27.5478C51.4416 27.0637 51.4416 26.5796 51.4416 26.1122C51.4416 25.6448 51.4416 25.1941 51.4416 24.7434C51.4416 23.8587 51.2742 23.0741 51.2073 22.323C51.0566 20.9375 50.9059 20.0027 50.9059 20.0027L50.3032 20.4701C49.9173 20.9075 49.5541 21.3644 49.2151 21.8389C48.7075 22.5018 48.238 23.1929 47.8088 23.9088C47.3089 24.7426 46.8616 25.6068 46.4695 26.4962C46.0715 27.4249 45.7523 28.3854 45.5152 29.3673C45.3167 30.3221 45.238 31.2977 45.2809 32.2718C45.3043 33.2033 45.5377 34.1176 45.9637 34.9469C46.3897 35.7763 46.9974 36.4994 47.7418 37.0627Z" fill="#FF561D"/>
<path d="M61.8041 36.0611C62.457 35.577 63.0596 35.1096 63.5954 34.6422C64.1311 34.1748 64.6333 33.7241 65.0184 33.3402C65.4034 32.9563 65.755 32.6224 65.9726 32.3887L66.3242 32.0215C65.6158 31.879 64.9006 31.7732 64.1813 31.7043C63.4637 31.6344 62.7426 31.6065 62.0217 31.6209C61.1471 31.6147 60.2735 31.6818 59.4101 31.8212C57.6062 32.0301 55.8815 32.6779 54.3877 33.7074C53.7123 34.2154 53.1435 34.8506 52.7136 35.577C52.3347 36.3378 52.1561 37.1823 52.1946 38.0309C53.8468 38.7434 55.7012 38.8382 57.4179 38.2979C58.2228 38.0651 58.9981 37.7403 59.7281 37.3298C60.4512 36.9596 61.1451 36.5355 61.8041 36.0611Z" fill="#FF561D"/>
<path d="M126.276 128.723C128.165 128.384 130.008 127.823 131.767 127.054C132.534 126.733 133.283 126.371 134.01 125.969C134.01 125.969 133.106 125.618 131.733 125.168C130.36 124.717 128.502 124.116 126.56 123.632C124.66 123.127 122.7 122.886 120.734 122.914C119.826 122.936 118.927 123.105 118.072 123.415C117.175 123.752 116.339 124.231 115.595 124.834C115.924 125.769 116.49 126.603 117.238 127.255C117.986 127.908 118.891 128.356 119.864 128.556C121.962 129.085 124.152 129.142 126.276 128.723Z" fill="#FF561D"/>
<path d="M115.828 121.779C116.693 121.602 117.506 121.231 118.206 120.694C119.672 119.518 120.823 117.998 121.554 116.27C122.197 114.734 122.647 113.125 122.893 111.479C123.01 110.828 123.06 110.277 123.111 109.91C123.161 109.543 123.111 109.309 123.111 109.309C123.111 109.309 122.441 109.66 121.437 110.277C120.198 111.044 119.007 111.886 117.871 112.798C116.572 113.83 115.442 115.058 114.522 116.437C113.583 117.936 113.112 119.678 113.166 121.445C113.996 121.834 114.928 121.951 115.828 121.779Z" fill="#FF561D"/>
<path d="M140.589 114.383C138.628 114.385 136.676 114.637 134.779 115.135C133.914 115.365 133.104 115.765 132.396 116.313C131.689 116.86 131.099 117.544 130.661 118.323C131.229 119.079 131.964 119.693 132.809 120.119C133.654 120.545 134.586 120.77 135.533 120.777C137.63 120.798 139.705 120.335 141.593 119.425C143.397 118.594 145.085 117.534 146.616 116.27C147.252 115.769 147.754 115.285 148.105 114.968L148.641 114.434H146.13C144.573 114.367 142.581 114.333 140.589 114.383Z" fill="#FF561D"/>
<path d="M127.212 115.336C128.094 115.379 128.973 115.202 129.768 114.82C130.563 114.438 131.25 113.863 131.766 113.149C132.853 111.676 133.55 109.954 133.792 108.141C134.038 106.542 134.038 104.916 133.792 103.317C133.717 102.811 133.617 102.31 133.49 101.815C133.39 101.447 133.323 101.247 133.323 101.247L133.005 101.598C132.787 101.815 132.502 102.132 132.151 102.532C131.448 103.334 130.477 104.435 129.523 105.737C128.497 107.078 127.689 108.571 127.129 110.161C126.518 111.838 126.548 113.68 127.212 115.336Z" fill="#FF561D"/>
<path d="M153.564 105.42C153.765 105.17 153.949 104.919 154.15 104.686L154.418 104.302L154.652 104.001C154.937 103.617 155.204 103.217 155.455 102.833C155.958 102.065 156.393 101.347 156.745 100.713C157.096 100.078 157.381 99.5442 157.565 99.1603C157.749 98.7763 157.833 98.5593 157.833 98.5593C157.833 98.5593 156.929 98.8097 155.556 99.2437C153.877 99.7684 152.233 100.398 150.634 101.13C150.199 101.33 149.763 101.547 149.328 101.781L147.989 102.582C147.554 102.849 147.118 103.1 146.717 103.384C146.315 103.667 145.913 103.918 145.561 104.201C144.054 105.26 142.978 106.824 142.531 108.608C143.304 109.187 144.211 109.562 145.168 109.699C146.125 109.836 147.1 109.731 148.006 109.393C150.192 108.608 152.117 107.233 153.564 105.42Z" fill="#FF561D"/>
<path d="M141.844 97.3235C141.381 95.735 140.758 94.197 139.986 92.733C139.748 92.2903 139.485 91.8612 139.199 91.4477L138.848 90.9302L138.663 91.431C138.529 91.7481 138.329 92.1988 138.128 92.7664C137.927 93.3339 137.692 93.9849 137.475 94.7361C137.264 95.4466 137.107 96.172 137.006 96.9062C136.761 98.3729 136.66 99.8601 136.705 101.346C136.76 103.121 137.388 104.831 138.496 106.221C139.35 106.017 140.132 105.587 140.76 104.976C141.388 104.364 141.838 103.595 142.062 102.749C142.21 102.332 142.316 101.901 142.38 101.463C142.422 101.014 142.422 100.561 142.38 100.111C142.344 99.6629 142.283 99.217 142.196 98.7758C142.079 98.2249 141.961 97.7742 141.844 97.3235Z" fill="#FF561D"/>
<path d="M162.252 83.2518C162.353 82.8345 162.386 82.6008 162.386 82.6008L160.277 83.7192C158.728 84.5461 157.225 85.4543 155.773 86.4402C154.15 87.4666 152.708 88.7525 151.504 90.2461C151.253 90.6133 150.985 90.9639 150.768 91.3478C150.559 91.7243 150.391 92.1215 150.265 92.533C149.989 93.3958 149.931 94.3135 150.098 95.2038C150.997 95.4521 151.941 95.5001 152.861 95.3443C153.781 95.1885 154.655 94.8328 155.422 94.3024C155.828 94.0428 156.215 93.7526 156.577 93.4344C156.966 93.1183 157.325 92.7662 157.648 92.3828C158.311 91.6026 158.91 90.7709 159.44 89.8955C160.404 88.3291 161.163 86.6462 161.7 84.8877C161.968 84.2701 162.135 83.6692 162.252 83.2518Z" fill="#FF561D"/>
<path d="M145.494 93.6681C146.212 93.1653 146.788 92.487 147.168 91.6983C147.362 91.3172 147.508 90.9135 147.603 90.4964C147.724 90.0843 147.786 89.6572 147.787 89.2278C147.749 87.3913 147.31 85.5853 146.498 83.9362C145.766 82.4528 144.873 81.0534 143.836 79.763C143.418 79.2622 143.066 78.8616 142.798 78.5778L142.38 78.2273C142.337 78.3979 142.304 78.5706 142.279 78.7448C142.279 79.0619 142.112 79.5293 142.012 80.0969C141.789 81.5344 141.649 82.9835 141.593 84.437C141.561 85.2896 141.594 86.1435 141.693 86.991L141.794 87.642L141.894 88.2763C141.977 88.6993 142.083 89.1172 142.212 89.5283C142.747 91.2696 143.918 92.7472 145.494 93.6681Z" fill="#FF561D"/>
<path d="M157.933 71.0827C157.615 71.4333 157.28 71.8005 156.979 72.1844L156.058 73.3196C155.486 74.0566 154.992 74.851 154.585 75.6899C154.405 76.0904 154.254 76.5032 154.133 76.9252C153.998 77.3326 153.903 77.7518 153.848 78.1771C153.745 79.0717 153.866 79.9778 154.2 80.8146C155.127 80.888 156.06 80.7537 156.929 80.4216C157.798 80.0894 158.581 79.5678 159.222 78.8949C159.577 78.5571 159.907 78.1945 160.21 77.8099C160.494 77.4093 160.762 76.9753 161.013 76.5412C161.503 75.6224 161.923 74.6682 162.269 73.6868C162.454 73.21 162.6 72.7186 162.704 72.2178C162.821 71.7337 162.922 71.2497 163.022 70.7823C163.19 69.9379 163.312 69.0854 163.391 68.2283C163.474 66.7092 163.391 65.7244 163.391 65.7244C163.391 65.7244 162.654 66.342 161.616 67.3936C160.578 68.4453 159.255 69.6305 157.933 71.0827Z" fill="#FF561D"/>
<path d="M150.75 77.5095C150.859 77.0999 150.927 76.6805 150.951 76.2575C150.947 75.8258 150.903 75.3955 150.817 74.9722C150.638 74.0978 150.346 73.2505 149.947 72.4516C149.846 72.2512 149.746 72.0509 149.629 71.8506L149.261 71.2664C148.993 70.8824 148.708 70.5152 148.423 70.148C147.87 69.4793 147.278 68.8439 146.649 68.245C146.348 67.9612 146.046 67.7108 145.745 67.4771L144.891 66.8428C144.314 66.4155 143.71 66.0252 143.083 65.6743C143.083 65.6743 143.083 66.3921 143.2 67.4938C143.2 67.7609 143.2 68.0614 143.2 68.3785L143.301 69.3968C143.301 70.0979 143.552 70.8658 143.686 71.6503C143.829 72.4664 144.036 73.2701 144.305 74.0541C144.451 74.4578 144.619 74.8535 144.807 75.2392C144.961 75.6263 145.146 76.0003 145.36 76.3577C146.247 77.9272 147.684 79.1158 149.394 79.6962C150.021 79.0904 150.487 78.339 150.75 77.5095Z" fill="#FF561D"/>
<path d="M154.283 60.8671C154.057 61.6986 153.994 62.5658 154.099 63.421C154.161 63.85 154.274 64.2701 154.434 64.673C154.58 65.1039 154.783 65.5137 155.036 65.8916C155.969 65.7657 156.859 65.4238 157.635 64.8934C158.411 64.3629 159.052 63.6586 159.506 62.8368C160.018 61.9804 160.412 61.0597 160.678 60.0992C160.93 59.0908 161.097 58.0635 161.18 57.0277C161.18 56.5103 161.18 55.9761 161.18 55.4753C161.18 54.9745 161.18 54.4904 161.18 54.0064C161.18 53.0549 160.996 52.1702 160.896 51.4357C160.594 49.95 160.31 48.9985 160.31 48.9985C160.31 48.9985 159.757 49.7831 159.004 51.0017C158.636 51.6026 158.184 52.3037 157.715 53.0883C157.246 53.8728 156.761 54.7575 156.309 55.5755C155.857 56.3934 155.405 57.2447 155.036 58.2129C154.702 59.0721 154.45 59.9607 154.283 60.8671Z" fill="#FF561D"/>
<path d="M150.466 60.6002C150.076 59.7995 149.574 59.0577 148.976 58.3967C148.675 58.0629 148.357 57.7457 148.022 57.4286C147.674 57.1265 147.311 56.8424 146.934 56.5772C145.626 55.6416 144.202 54.8785 142.698 54.307C142.046 54.0556 141.381 53.8383 140.706 53.656C140.706 53.656 140.89 54.3404 141.275 55.3253C141.459 55.8428 141.644 56.4604 141.928 57.0947L142.38 58.0629C142.548 58.3967 142.682 58.7473 142.866 59.1145C143.198 59.8654 143.596 60.586 144.054 61.2679C144.484 61.9801 145.002 62.6362 145.594 63.2209C146.845 64.5072 148.511 65.3113 150.299 65.4911C150.539 65.1162 150.73 64.7124 150.868 64.2893C150.989 63.8833 151.046 63.4608 151.035 63.0373C151.012 62.195 150.818 61.3661 150.466 60.6002Z" fill="#FF561D"/>
<path d="M153.211 33.8083C153.211 33.8083 152.893 34.6764 152.424 36.0452C151.956 37.414 151.42 39.1834 150.934 41.053C150.694 41.9928 150.509 42.9459 150.382 43.9074C150.226 44.8167 150.175 45.7409 150.231 46.6617C150.231 47.0958 150.231 47.5298 150.399 47.9471C150.478 48.3597 150.602 48.7626 150.767 49.149C150.939 49.5464 151.158 49.9219 151.42 50.2674C151.677 50.6383 151.975 50.9798 152.307 51.2856C153.19 50.9198 153.971 50.3472 154.584 49.6164C155.179 48.9049 155.613 48.0736 155.856 47.1792C155.991 46.7132 156.098 46.2394 156.174 45.7603C156.247 45.2628 156.286 44.7608 156.292 44.258C156.271 43.2286 156.176 42.2021 156.007 41.1865C155.658 39.3797 155.096 37.6204 154.333 35.945C154.031 35.2606 153.747 34.7098 153.563 34.2757L153.211 33.8083Z" fill="#FF561D"/>
<path d="M147.218 48.0469C147.037 47.6676 146.806 47.3139 146.531 46.9953C145.948 46.3256 145.278 45.7362 144.539 45.2425C143.771 44.7453 142.951 44.3313 142.095 44.0073C141.676 43.8403 141.258 43.6901 140.856 43.5733C140.454 43.4564 140.019 43.3396 139.617 43.2394C138.797 43.0558 138.06 42.9389 137.424 42.8555C136.788 42.772 136.269 42.7386 135.884 42.7219H135.281C135.281 42.7219 135.365 42.8888 135.532 43.1559C135.7 43.423 135.934 43.8236 136.236 44.2743C136.537 44.725 136.554 44.7417 136.754 45.0088L137.039 45.4095L137.34 45.8268C137.772 46.4398 138.242 47.0252 138.747 47.5795C139.255 48.1832 139.815 48.7417 140.421 49.2488C140.575 49.3913 140.737 49.525 140.906 49.6494L141.375 50.0333C141.707 50.2826 142.053 50.5112 142.413 50.7177C143.154 51.143 143.955 51.4526 144.79 51.6358C145.702 51.8128 146.64 51.8128 147.553 51.6358C147.683 51.2121 147.767 50.7755 147.804 50.3338C147.807 49.9162 147.75 49.5003 147.636 49.0985C147.532 48.7349 147.392 48.3826 147.218 48.0469Z" fill="#FF561D"/>
<path d="M145.962 38.0313C146.707 37.4673 147.316 36.7444 147.744 35.9155C148.173 35.0866 148.411 34.1727 148.44 33.2405C148.465 32.2652 148.375 31.2904 148.172 30.336C147.935 29.3486 147.616 28.3826 147.218 27.4482C146.826 26.5588 146.378 25.6946 145.878 24.8608C145.445 24.1474 144.976 23.4566 144.472 22.7909C144.053 22.2066 143.652 21.7559 143.384 21.4221L142.949 20.938C142.949 20.938 142.781 21.8728 142.63 23.275C142.547 23.9761 142.463 24.794 142.396 25.6954C142.396 26.1294 142.396 26.5801 142.396 27.0475C142.396 27.5149 142.396 28.0157 142.396 28.4998C142.311 30.3715 142.509 32.2453 142.982 34.0585C143.184 34.8892 143.548 35.672 144.053 36.3621C144.556 37.0547 145.208 37.6253 145.962 38.0313Z" fill="#FF561D"/>
<path d="M139.349 34.6925C137.857 33.6577 136.132 33.0042 134.327 32.7896C133.464 32.6502 132.59 32.5831 131.715 32.5892C130.895 32.5892 130.142 32.5892 129.489 32.5892C128.756 32.6955 128.03 32.8404 127.312 33.0233L127.664 33.3905L128.602 34.342C129.003 34.7426 129.506 35.1766 130.041 35.644C130.612 36.1492 131.21 36.6229 131.833 37.0629C132.494 37.5484 133.188 37.989 133.909 38.3816C134.636 38.7935 135.412 39.1131 136.219 39.3331C137.934 39.8826 139.792 39.7876 141.442 39.066C141.486 38.2063 141.308 37.3496 140.923 36.5788C140.53 35.8514 139.995 35.21 139.349 34.6925Z" fill="#FF561D"/>
<path d="M56.1127 28.917C56.7487 28.9421 57.3852 28.8803 58.0044 28.7334C58.7994 28.5068 59.5516 28.1515 60.231 27.6818C60.5701 27.4339 60.8944 27.1664 61.202 26.8805C61.5241 26.5955 61.8261 26.2887 62.106 25.9624C62.7106 25.3112 63.2699 24.6196 63.7802 23.8925C64.7511 22.457 65.5882 20.9713 66.1909 19.8529C66.4922 19.302 66.7266 18.8346 66.894 18.5008L67.0447 18.1168V18H66.9108H66.4755C65.9564 18.0684 65.442 18.1687 64.9353 18.3005C63.3359 18.7053 61.7945 19.3111 60.3482 20.1033C58.6774 20.9654 57.2325 22.206 56.1294 23.7256C55.6177 24.4476 55.2745 25.2746 55.1249 26.146C54.9584 26.8768 54.9584 27.6355 55.1249 28.3662" fill="#FF561D"/>
<path d="M137.626 29.3515C137.825 28.6111 137.86 27.8363 137.727 27.0813C137.559 26.2204 137.217 25.4025 136.722 24.6776C135.624 23.1533 134.178 21.9116 132.503 21.0552C131.041 20.2683 129.482 19.6736 127.866 19.2858C127.23 19.1356 126.694 19.0354 126.326 18.9854H125.907H125.773V19.1189C125.773 19.1189 125.874 19.3359 125.958 19.5028L126.677 20.8549C127.408 22.238 128.213 23.5809 129.088 24.8779C129.603 25.607 130.162 26.3039 130.762 26.9645C131.042 27.2855 131.344 27.5867 131.666 27.8659C131.966 28.1605 132.291 28.4286 132.637 28.6671C133.307 29.1361 134.055 29.481 134.847 29.6854C135.487 29.8424 136.147 29.9043 136.806 29.869" fill="#FF561D"/>
</g>
<g clip-path="url(#clip0)">
<path d="M104.852 80.389C103.132 81.9197 100.909 82.7505 98.6142 82.7194C93.3264 82.7194 89.4432 78.8077 89.4432 73.4395C89.4432 68.0712 93.2025 64.326 98.6142 64.326C100.914 64.2946 103.146 65.1083 104.893 66.6148L106.05 67.6135L111.173 62.4533L109.892 61.2465C106.794 58.458 102.769 56.9431 98.6142 57.0019C89.1127 57.0019 82.2139 63.9098 82.2139 73.3979C82.2139 82.8859 89.278 90.0019 98.6142 90.0019C102.808 90.0585 106.867 88.512 109.975 85.674L111.214 84.5088L106.009 79.3487L104.852 80.389Z" fill="black"/>
<path d="M98.3664 79.0139C101.401 79.0139 103.861 76.536 103.861 73.4793C103.861 70.4225 101.401 67.9446 98.3664 67.9446C95.332 67.9446 92.8721 70.4225 92.8721 73.4793C92.8721 76.536 95.332 79.0139 98.3664 79.0139Z" fill="black"/>
</g>
<defs>
<filter id="filter0_d" x="0.213867" y="0" width="193.214" height="171" filterUnits="userSpaceOnUse" color-interpolation-filters="sRGB">
<feFlood flood-opacity="0" result="BackgroundImageFix"/>
<feColorMatrix in="SourceAlpha" type="matrix" values="0 0 0 0 0 0 0 0 0 0 0 0 0 0 0 0 0 0 127 0"/>
<feOffset dy="12"/>
<feGaussianBlur stdDeviation="15"/>
<feColorMatrix type="matrix" values="0 0 0 0 0 0 0 0 0 0 0 0 0 0 0 0 0 0 0.15 0"/>
<feBlend mode="normal" in2="BackgroundImageFix" result="effect1_dropShadow"/>
<feBlend mode="normal" in="SourceGraphic" in2="effect1_dropShadow" result="shape"/>
</filter>
<clipPath id="clip0">
<rect width="29" height="33" fill="white" transform="translate(82.2139 57)"/>
</clipPath>
</defs>
</svg>
