<svg width="194" height="171" viewBox="0 0 194 171" fill="none" xmlns="http://www.w3.org/2000/svg">
<g filter="url(#filter0_d)">
<path d="M78.2642 123.729C77.4939 123.127 76.6375 122.644 75.7236 122.296C74.8684 121.995 73.9722 121.826 73.066 121.796C71.1026 121.773 69.1455 122.02 67.2494 122.529C65.3106 123.012 63.4553 123.579 62.0847 124.045C60.7141 124.512 59.8115 124.862 59.8115 124.862C59.8115 124.862 60.6974 125.362 62.1014 125.962C63.8594 126.723 65.6987 127.282 67.5837 127.629C69.7141 128.046 71.9103 127.995 74.0187 127.479C74.9904 127.271 75.8919 126.817 76.6358 126.16C77.3796 125.503 77.9405 124.666 78.2642 123.729Z" fill="#FF561D"/>
<path d="M72.3475 115.162C73.0688 116.893 74.219 118.412 75.6904 119.578C76.3878 120.12 77.1993 120.496 78.0638 120.678C78.9549 120.86 79.8801 120.773 80.7214 120.428C80.7794 118.662 80.3017 116.92 79.3508 115.429C78.4428 114.044 77.3135 112.817 76.008 111.795C74.8737 110.885 73.6848 110.045 72.4478 109.279C71.4617 108.662 70.7764 108.312 70.7764 108.312C70.7764 108.312 70.7764 108.529 70.7764 108.912C70.7764 109.296 70.8767 109.812 70.9937 110.479C71.2518 112.089 71.7064 113.662 72.3475 115.162Z" fill="#FF561D"/>
<path d="M58.4075 119.662C59.3521 119.651 60.2816 119.425 61.1247 119C61.9678 118.575 62.7022 117.964 63.2714 117.212C62.8269 116.427 62.2274 115.741 61.5092 115.194C60.791 114.647 59.969 114.25 59.0928 114.029C57.2013 113.524 55.251 113.272 53.293 113.279C51.3039 113.279 49.3149 113.279 47.8274 113.279H45.3369C45.3369 113.279 45.5208 113.496 45.8551 113.829C46.1893 114.162 46.7075 114.612 47.3426 115.129C48.8712 116.385 50.5567 117.438 52.3569 118.262C54.238 119.189 56.3092 119.669 58.4075 119.662Z" fill="#FF561D"/>
<path d="M62.1849 112.046C62.7032 112.757 63.3891 113.33 64.182 113.713C64.9749 114.097 65.8505 114.28 66.7312 114.246C67.4267 112.572 67.4685 110.699 66.8482 108.996C66.2545 107.433 65.4199 105.971 64.3745 104.663C63.4217 103.363 62.4523 102.247 61.7503 101.463C61.3993 101.047 61.0984 100.73 60.8979 100.513L60.5803 100.18C60.5803 100.18 60.5803 100.38 60.4132 100.73C60.2871 101.23 60.1867 101.736 60.1123 102.247C59.8662 103.843 59.8662 105.467 60.1123 107.063C60.3742 108.871 61.0868 110.584 62.1849 112.046Z" fill="#FF561D"/>
<path d="M38.3503 98.1633C36.9797 97.73 36.0771 97.48 36.0771 97.48C36.0771 97.48 36.1607 97.7133 36.3446 98.0966C36.5284 98.4799 36.8126 98.9966 37.1636 99.6299C37.5146 100.263 37.9492 100.996 38.4506 101.763C38.7013 102.146 38.9687 102.53 39.2529 102.93L39.4702 103.23L39.7543 103.596L40.3393 104.33C41.7831 106.144 43.7043 107.523 45.8885 108.313C46.793 108.646 47.7665 108.748 48.7208 108.611C49.6751 108.475 50.5801 108.103 51.3541 107.53C50.9078 105.748 49.834 104.187 48.3288 103.13C47.9778 102.846 47.5766 102.58 47.1755 102.296L45.9052 101.496L44.5513 100.713C44.1335 100.48 43.6989 100.263 43.2643 100.063C41.6709 99.3208 40.0292 98.6861 38.3503 98.1633Z" fill="#FF561D"/>
<path d="M51.8224 101.596C52.0495 102.439 52.4998 103.206 53.1261 103.816C53.7525 104.426 54.5319 104.857 55.3826 105.063C56.4857 103.667 57.1123 101.956 57.171 100.18C57.2152 98.7013 57.1144 97.2222 56.8701 95.7633C56.7694 95.0248 56.613 94.295 56.4021 93.58C56.1849 92.8467 55.9676 92.1801 55.7503 91.6301C55.533 91.0802 55.3491 90.6135 55.2154 90.2969L55.0316 89.7969L54.6806 90.2969C54.4633 90.6302 54.1958 91.0968 53.895 91.6801C53.1182 93.1625 52.4965 94.7206 52.0397 96.3299C51.9227 96.7799 51.8057 97.2466 51.7054 97.7132C51.6184 98.1537 51.557 98.5989 51.5215 99.0465C51.4798 99.4899 51.4798 99.9363 51.5215 100.38C51.5833 100.794 51.684 101.201 51.8224 101.596Z" fill="#FF561D"/>
<path d="M36.2447 91.3295C36.5717 91.7083 36.9295 92.0595 37.3144 92.3795C37.6764 92.6919 38.062 92.9761 38.4677 93.2295C39.2257 93.7814 40.0991 94.1551 41.0225 94.3225C41.9459 94.4899 42.8953 94.4467 43.7996 94.1961C43.9578 93.3067 43.9005 92.3924 43.6325 91.5295C43.5086 91.1209 43.3345 90.729 43.1143 90.3629C42.8963 89.9827 42.6564 89.6154 42.3956 89.263C41.1976 87.7618 39.7503 86.4766 38.1167 85.4631C36.6782 84.4507 35.1826 83.5215 33.6373 82.6799L31.5312 81.5466C31.5312 81.5466 31.5312 81.7966 31.665 82.2133C31.7987 82.6299 31.9491 83.2132 32.1998 83.8799C32.7366 85.635 33.4948 87.3151 34.4563 88.8796C34.9906 89.7394 35.5884 90.5583 36.2447 91.3295Z" fill="#FF561D"/>
<path d="M46.708 90.63C47.0832 91.42 47.6595 92.098 48.3795 92.5966C49.9857 91.6992 51.183 90.2188 51.7224 88.4634C51.8556 88.0542 51.9617 87.6366 52.0399 87.2135L52.1402 86.5802C52.1402 86.3802 52.1402 86.1635 52.2405 85.9469C52.3401 85.0952 52.3736 84.2371 52.3408 83.3803C52.2849 81.9292 52.1454 80.4824 51.9229 79.0472C51.8226 78.4805 51.7224 78.0139 51.6555 77.6972C51.5886 77.3806 51.5552 77.1973 51.5552 77.1973L51.1374 77.6139C50.7651 77.9831 50.4135 78.3726 50.0844 78.7805C49.0474 80.0471 48.1508 81.4217 47.4101 82.8804C46.5938 84.5246 46.1542 86.3291 46.123 88.1635C46.1271 88.5963 46.1832 89.0272 46.2902 89.4467C46.3846 89.8555 46.5248 90.2524 46.708 90.63Z" fill="#FF561D"/>
<path d="M32.868 75.4974C33.102 75.9398 33.3703 76.3633 33.6703 76.764C33.9727 77.1533 34.3023 77.5209 34.6565 77.864C35.2962 78.5358 36.0785 79.0566 36.9461 79.3882C37.8136 79.7198 38.7446 79.8539 39.6708 79.7806C40.0025 78.9448 40.123 78.0405 40.0218 77.1473C39.9706 76.722 39.8754 76.3031 39.7376 75.8974C39.6305 75.4762 39.4908 75.0638 39.3198 74.6641C38.9172 73.8207 38.418 73.0265 37.8322 72.2976L36.9296 71.1643C36.6288 70.781 36.2945 70.4143 35.9769 70.0477C34.6565 68.6144 33.219 67.2811 32.1995 66.2978C31.1799 65.3145 30.4277 64.6646 30.4277 64.6646C30.4277 64.6646 30.4277 65.6645 30.4277 67.1644C30.5057 68.0257 30.6284 68.8824 30.7955 69.731C30.8957 70.1976 30.996 70.681 31.113 71.1643C31.2213 71.6614 31.3608 72.1512 31.5309 72.6309C31.9097 73.616 32.3565 74.5738 32.868 75.4974Z" fill="#FF561D"/>
<path d="M44.4843 78.6973C46.1963 78.1248 47.6326 76.9363 48.5125 75.3641C48.7263 75.0016 48.9108 74.6226 49.064 74.2308C49.2553 73.847 49.4227 73.4518 49.5655 73.0475C49.8286 72.2701 50.0298 71.4732 50.1672 70.6643C50.3176 69.881 50.4847 69.1144 50.5683 68.4144C50.5683 68.0477 50.5683 67.7144 50.6686 67.3978C50.7689 67.0811 50.6686 66.7811 50.6686 66.4978C50.7607 65.8906 50.8165 65.2784 50.8357 64.6646C50.8357 64.6646 50.1003 65.0812 49.0473 65.8312L48.1949 66.4645C47.894 66.7145 47.5932 66.9645 47.2923 67.2478C46.6396 67.8302 46.0307 68.4597 45.4704 69.131C45.1863 69.481 44.9022 69.8477 44.6347 70.231L44.267 70.8143L43.9494 71.4309C43.5513 72.2285 43.2591 73.0745 43.0803 73.9475C42.9871 74.3688 42.9423 74.7993 42.9466 75.2308C42.9713 75.6476 43.0385 76.0608 43.1471 76.464C43.3875 77.313 43.8488 78.0835 44.4843 78.6973Z" fill="#FF561D"/>
<path d="M37.5318 54.6653C37.0806 53.7986 36.5958 52.9987 36.1278 52.182L34.8408 50.0988C34.0887 48.8822 33.5371 48.0989 33.5371 48.0989C33.5371 48.0989 33.253 49.0488 32.9521 50.5154C32.8518 51.2654 32.7348 52.182 32.668 53.0987C32.668 53.5653 32.668 54.0653 32.668 54.5653C32.668 55.0652 32.668 55.5819 32.668 56.0985C32.7494 57.1328 32.9172 58.1585 33.1694 59.1651C33.4324 60.1304 33.826 61.0555 34.3394 61.9149C34.8009 62.7178 35.4423 63.4033 36.2136 63.918C36.9849 64.4326 37.8651 64.7624 38.7854 64.8815C39.0357 64.5023 39.2378 64.0937 39.3871 63.6649C39.5451 63.262 39.6572 62.8427 39.7214 62.4149C39.8497 61.5599 39.81 60.6882 39.6044 59.8484C39.4131 58.9474 39.1389 58.066 38.7854 57.2152C38.4177 56.3319 37.9664 55.4319 37.5318 54.6653Z" fill="#FF561D"/>
<path d="M48.3457 62.1978C48.9372 61.6199 49.4537 60.9704 49.8834 60.2646C50.3529 59.6028 50.7613 58.8999 51.1036 58.1647C51.2875 57.8147 51.4212 57.4647 51.5883 57.1314L52.0229 56.1314C52.2903 55.4815 52.4909 54.8815 52.6747 54.3648C53.0592 53.3482 53.243 52.6982 53.243 52.6982C52.5465 52.878 51.8603 53.0949 51.1872 53.3482C49.6824 53.9121 48.2602 54.6744 46.9584 55.6148C46.5781 55.8742 46.2152 56.1582 45.872 56.4647C45.5378 56.7702 45.2198 57.0929 44.9193 57.4314C44.3195 58.1015 43.8186 58.8535 43.4317 59.6646C43.0895 60.4304 42.9129 61.2595 42.9136 62.0978C42.9021 62.5152 42.9586 62.9317 43.0807 63.3311C43.2182 63.7588 43.4091 64.1676 43.649 64.5477C45.4424 64.3374 47.1047 63.5057 48.3457 62.1978Z" fill="#FF561D"/>
<path d="M42.4781 49.2987C42.7391 48.9596 42.958 48.5903 43.13 48.1988C43.2951 47.813 43.4184 47.4107 43.4977 46.9988C43.4977 46.5822 43.6147 46.1489 43.6649 45.7155C43.7189 44.8073 43.6684 43.8958 43.5144 42.999C43.3871 42.039 43.203 41.0874 42.9629 40.1491C42.4781 38.2492 41.96 36.4659 41.4753 35.1493C40.9906 33.8327 40.6897 32.8328 40.6897 32.8328C40.6897 32.8328 40.556 33.0494 40.3554 33.4161C40.1548 33.7827 39.8874 34.3494 39.5698 35.0827C38.813 36.7573 38.2522 38.5132 37.8984 40.3158C37.7324 41.3133 37.6374 42.3214 37.6143 43.3323C37.62 43.8343 37.6591 44.3354 37.7313 44.8322C37.8096 45.3102 37.9156 45.7832 38.0488 46.2489C38.2916 47.1366 38.7251 47.9612 39.3191 48.6654C39.9267 49.4001 40.7078 49.9727 41.5923 50.332C41.9334 50.0294 42.2314 49.6818 42.4781 49.2987Z" fill="#FF561D"/>
<path d="M58.324 42.0656C58.5079 41.7989 58.5915 41.6489 58.5915 41.6489H58.0064C57.6053 41.6489 57.0872 41.6489 56.452 41.7823C55.8169 41.9156 55.0647 41.9822 54.2624 42.1656C53.8613 42.2489 53.4434 42.3656 53.0256 42.4822C52.6077 42.5989 52.2066 42.7655 51.7887 42.9322C50.9336 43.2557 50.1156 43.6691 49.3484 44.1655C48.6157 44.6327 47.9471 45.1929 47.3594 45.8321C47.089 46.153 46.8588 46.5055 46.6741 46.882C46.493 47.2507 46.3475 47.6358 46.2395 48.032C46.1255 48.4331 46.0692 48.8484 46.0724 49.2653C46.1089 49.7118 46.1929 50.1531 46.3231 50.5819C47.2339 50.7585 48.1702 50.7585 49.081 50.5819C49.9123 50.3918 50.7116 50.0831 51.4544 49.6652C51.8054 49.4486 52.1564 49.2319 52.4907 48.9819L52.9587 48.5986L53.4434 48.1986C54.0475 47.692 54.6067 47.1344 55.1149 46.5321C55.6166 46.0057 56.0855 45.4491 56.5189 44.8655L56.8197 44.4321L57.1039 44.0488C57.3044 43.7822 57.4716 43.5322 57.622 43.3155C57.7724 43.0989 58.1736 42.3489 58.324 42.0656Z" fill="#FF561D"/>
<path d="M47.9273 37.0324C48.7172 36.6477 49.4003 36.0754 49.9163 35.3658C50.4336 34.6899 50.814 33.92 51.0362 33.0992C51.5079 31.2831 51.7051 29.4069 51.6212 27.5328C51.6212 27.0495 51.6212 26.5661 51.6212 26.0995C51.6212 25.6328 51.6212 25.1829 51.6212 24.7329C51.6212 23.8496 51.454 23.0663 51.3872 22.3163C51.2368 20.933 51.0863 19.9998 51.0863 19.9998L50.4846 20.4664C50.0993 20.9031 49.7367 21.3593 49.3982 21.833C48.8914 22.4949 48.4227 23.1848 47.9942 23.8996C47.495 24.7321 47.0485 25.5949 46.657 26.4828C46.2597 27.4101 45.941 28.369 45.7043 29.3494C45.5061 30.3026 45.4275 31.2767 45.4703 32.2492C45.4937 33.1792 45.7267 34.092 46.152 34.92C46.5774 35.748 47.1841 36.47 47.9273 37.0324Z" fill="#FF561D"/>
<path d="M61.9673 36.0323C62.6192 35.5489 63.2209 35.0823 63.7558 34.6157C64.2906 34.149 64.7921 33.699 65.1765 33.3157C65.5609 32.9324 65.9119 32.5991 66.1292 32.3657L66.4802 31.9991C65.773 31.8569 65.0589 31.7512 64.3408 31.6824C63.6243 31.6126 62.9044 31.5848 62.1846 31.5991C61.3114 31.593 60.4392 31.6599 59.5772 31.7991C57.7763 32.0078 56.0543 32.6545 54.5629 33.6824C53.8886 34.1895 53.3207 34.8237 52.8914 35.5489C52.5131 36.3085 52.3348 37.1516 52.3733 37.9988C54.0228 38.7102 55.8743 38.8049 57.5882 38.2655C58.3919 38.0331 59.1659 37.7087 59.8948 37.2989C60.6166 36.9293 61.3095 36.5059 61.9673 36.0323Z" fill="#FF561D"/>
<path d="M126.335 128.545C128.221 128.206 130.062 127.647 131.817 126.879C132.583 126.559 133.331 126.197 134.057 125.795C134.057 125.795 133.154 125.445 131.784 124.996C130.413 124.546 128.558 123.946 126.619 123.462C124.722 122.959 122.765 122.718 120.802 122.746C119.895 122.767 118.997 122.936 118.145 123.246C117.249 123.582 116.414 124.061 115.671 124.662C115.999 125.596 116.565 126.429 117.311 127.08C118.058 127.731 118.961 128.179 119.933 128.379C122.028 128.907 124.215 128.964 126.335 128.545Z" fill="#FF561D"/>
<path d="M115.905 121.612C116.768 121.435 117.58 121.065 118.278 120.529C119.743 119.356 120.891 117.838 121.621 116.112C122.263 114.579 122.713 112.972 122.958 111.329C123.075 110.679 123.126 110.129 123.176 109.763C123.226 109.396 123.176 109.163 123.176 109.163C123.176 109.163 122.507 109.513 121.504 110.129C120.267 110.895 119.078 111.735 117.944 112.646C116.648 113.677 115.52 114.902 114.601 116.279C113.664 117.775 113.193 119.515 113.247 121.279C114.076 121.667 115.006 121.784 115.905 121.612Z" fill="#FF561D"/>
<path d="M140.625 114.229C138.668 114.23 136.719 114.482 134.826 114.979C133.962 115.209 133.153 115.609 132.446 116.155C131.74 116.702 131.151 117.385 130.714 118.162C131.28 118.917 132.014 119.53 132.858 119.955C133.702 120.38 134.633 120.605 135.578 120.612C137.672 120.633 139.743 120.171 141.628 119.262C143.429 118.433 145.115 117.374 146.643 116.112C147.278 115.612 147.779 115.129 148.13 114.812L148.665 114.279H146.158C144.604 114.212 142.614 114.179 140.625 114.229Z" fill="#FF561D"/>
<path d="M127.27 115.179C128.15 115.223 129.027 115.045 129.822 114.664C130.616 114.283 131.301 113.709 131.816 112.996C132.902 111.526 133.597 109.806 133.839 107.996C134.085 106.4 134.085 104.776 133.839 103.18C133.765 102.675 133.664 102.174 133.538 101.68C133.438 101.313 133.371 101.113 133.371 101.113L133.053 101.463C132.836 101.68 132.552 101.997 132.201 102.397C131.499 103.197 130.529 104.296 129.577 105.596C128.553 106.935 127.746 108.425 127.186 110.013C126.577 111.687 126.607 113.526 127.27 115.179Z" fill="#FF561D"/>
<path d="M153.579 105.28C153.78 105.03 153.964 104.78 154.164 104.547L154.432 104.163L154.666 103.863C154.95 103.48 155.217 103.08 155.468 102.697C155.969 101.93 156.404 101.213 156.755 100.58C157.106 99.9468 157.39 99.4135 157.574 99.0302C157.758 98.6468 157.841 98.4302 157.841 98.4302C157.841 98.4302 156.939 98.6802 155.568 99.1135C153.892 99.6373 152.251 100.266 150.654 100.997C150.22 101.197 149.785 101.413 149.35 101.647L148.013 102.447C147.579 102.713 147.144 102.963 146.743 103.247C146.342 103.53 145.941 103.78 145.59 104.063C144.085 105.12 143.011 106.682 142.564 108.463C143.336 109.04 144.242 109.415 145.197 109.552C146.152 109.689 147.126 109.584 148.03 109.246C150.213 108.463 152.134 107.09 153.579 105.28Z" fill="#FF561D"/>
<path d="M141.879 97.1963C141.416 95.6103 140.795 94.0748 140.024 92.6132C139.786 92.1712 139.524 91.7428 139.238 91.3299L138.887 90.8132L138.703 91.3132C138.569 91.6299 138.369 92.0798 138.168 92.6465C137.968 93.2131 137.734 93.8631 137.516 94.6131C137.306 95.3224 137.149 96.0467 137.048 96.7796C136.804 98.2441 136.703 99.7288 136.748 101.213C136.803 102.985 137.43 104.691 138.536 106.079C139.388 105.876 140.169 105.447 140.796 104.836C141.423 104.226 141.872 103.457 142.096 102.613C142.244 102.196 142.35 101.767 142.414 101.329C142.456 100.88 142.456 100.429 142.414 99.9795C142.378 99.5319 142.317 99.0868 142.23 98.6462C142.113 98.0963 141.996 97.6463 141.879 97.1963Z" fill="#FF561D"/>
<path d="M162.254 83.1473C162.354 82.7306 162.388 82.4973 162.388 82.4973L160.282 83.6139C158.736 84.4394 157.235 85.3462 155.786 86.3305C154.165 87.3553 152.725 88.6391 151.523 90.1303C151.273 90.497 151.005 90.847 150.788 91.2303C150.58 91.6062 150.412 92.0028 150.287 92.4136C150.01 93.2749 149.953 94.1912 150.119 95.0801C151.017 95.328 151.959 95.3759 152.877 95.2203C153.796 95.0648 154.669 94.7097 155.435 94.1801C155.841 93.9209 156.226 93.6312 156.588 93.3135C156.977 92.9979 157.335 92.6464 157.658 92.2636C158.319 91.4846 158.917 90.6542 159.446 89.7803C160.409 88.2164 161.167 86.5362 161.702 84.7805C161.97 84.1639 162.137 83.5639 162.254 83.1473Z" fill="#FF561D"/>
<path d="M145.523 93.5466C146.239 93.0446 146.815 92.3675 147.194 91.58C147.388 91.1995 147.534 90.7964 147.629 90.3801C147.749 89.9686 147.811 89.5422 147.813 89.1135C147.775 87.28 147.335 85.4768 146.525 83.8304C145.794 82.3493 144.903 80.9522 143.868 79.6639C143.45 79.1639 143.099 78.7639 142.832 78.4806L142.414 78.1306C142.371 78.301 142.338 78.4734 142.313 78.6473C142.313 78.9639 142.146 79.4306 142.046 79.9972C141.824 81.4324 141.684 82.8792 141.628 84.3303C141.596 85.1816 141.629 86.0341 141.728 86.8802L141.829 87.5302L141.929 88.1635C142.011 88.5858 142.117 89.0031 142.247 89.4135C142.78 91.152 143.949 92.6273 145.523 93.5466Z" fill="#FF561D"/>
<path d="M157.942 70.9977C157.624 71.3477 157.29 71.7144 156.989 72.0977L156.07 73.231C155.499 73.9668 155.006 74.7599 154.599 75.5975C154.419 75.9974 154.269 76.4095 154.148 76.8308C154.014 77.2375 153.918 77.6561 153.864 78.0807C153.761 78.9739 153.882 79.8785 154.215 80.714C155.141 80.7873 156.072 80.6532 156.939 80.3216C157.807 79.99 158.589 79.4692 159.229 78.7974C159.583 78.4601 159.913 78.0981 160.215 77.7141C160.499 77.3141 160.767 76.8808 161.017 76.4475C161.506 75.5301 161.925 74.5775 162.271 73.5976C162.456 73.1216 162.602 72.631 162.706 72.131C162.823 71.6477 162.923 71.1644 163.023 70.6977C163.19 69.8547 163.313 69.0036 163.391 68.1478C163.474 66.6312 163.391 65.6479 163.391 65.6479C163.391 65.6479 162.655 66.2646 161.619 67.3145C160.583 68.3645 159.262 69.5478 157.942 70.9977Z" fill="#FF561D"/>
<path d="M150.77 77.4141C150.879 77.0052 150.946 76.5864 150.971 76.1641C150.967 75.7331 150.922 75.3034 150.837 74.8808C150.658 74.0079 150.366 73.1619 149.968 72.3643C149.868 72.1643 149.768 71.9643 149.651 71.7643L149.283 71.181C149.015 70.7977 148.731 70.431 148.447 70.0644C147.895 69.3968 147.303 68.7624 146.675 68.1645C146.375 67.8811 146.074 67.6311 145.773 67.3978L144.92 66.7645C144.344 66.3379 143.741 65.9482 143.115 65.5979C143.115 65.5979 143.115 66.3145 143.232 67.4145C143.232 67.6811 143.232 67.9811 143.232 68.2978L143.333 69.3144C143.333 70.0144 143.583 70.781 143.717 71.5643C143.86 72.3791 144.067 73.1815 144.335 73.9642C144.481 74.3673 144.649 74.7623 144.837 75.1475C144.99 75.5339 145.175 75.9074 145.388 76.2641C146.274 77.8312 147.709 79.0178 149.417 79.5973C150.042 78.9925 150.507 78.2423 150.77 77.4141Z" fill="#FF561D"/>
<path d="M154.298 60.7982C154.073 61.6284 154.01 62.4943 154.114 63.3481C154.177 63.7763 154.289 64.1958 154.449 64.5981C154.595 65.0283 154.797 65.4374 155.05 65.8147C155.981 65.689 156.87 65.3477 157.645 64.8181C158.42 64.2885 159.06 63.5853 159.513 62.7648C160.024 61.9098 160.417 60.9906 160.683 60.0316C160.934 59.0248 161.102 57.9992 161.185 56.9651C161.185 56.4484 161.185 55.9151 161.185 55.4151C161.185 54.9151 161.185 54.4318 161.185 53.9485C161.185 52.9986 161.001 52.1153 160.9 51.382C160.6 49.8987 160.315 48.9487 160.315 48.9487C160.315 48.9487 159.764 49.732 159.012 50.9486C158.644 51.5486 158.193 52.2486 157.725 53.0319C157.257 53.8152 156.772 54.6985 156.321 55.5151C155.869 56.3317 155.418 57.1817 155.05 58.1483C154.717 59.0062 154.465 59.8934 154.298 60.7982Z" fill="#FF561D"/>
<path d="M150.487 60.5319C150.097 59.7325 149.596 58.9919 148.999 58.332C148.698 57.9987 148.381 57.682 148.046 57.3654C147.699 57.0638 147.336 56.7802 146.96 56.5154C145.654 55.5813 144.233 54.8194 142.731 54.2488C142.08 53.9978 141.416 53.7809 140.742 53.5989C140.742 53.5989 140.926 54.2822 141.31 55.2655C141.494 55.7821 141.678 56.3988 141.962 57.0321L142.414 57.9987C142.581 58.332 142.714 58.682 142.898 59.0486C143.23 59.7983 143.628 60.5177 144.085 61.1985C144.514 61.9096 145.031 62.5646 145.623 63.1485C146.871 64.4326 148.535 65.2354 150.32 65.415C150.559 65.0407 150.75 64.6375 150.888 64.2151C151.009 63.8098 151.065 63.3879 151.055 62.9651C151.032 62.1242 150.838 61.2966 150.487 60.5319Z" fill="#FF561D"/>
<path d="M153.228 33.783C153.228 33.783 152.91 34.6496 152.442 36.0162C151.974 37.3828 151.439 39.1494 150.955 41.016C150.715 41.9543 150.53 42.9059 150.403 43.8659C150.247 44.7737 150.197 45.6964 150.253 46.6157C150.253 47.0491 150.253 47.4824 150.42 47.899C150.499 48.3109 150.622 48.7132 150.788 49.099C150.959 49.4958 151.178 49.8706 151.439 50.2156C151.696 50.5859 151.993 50.9269 152.325 51.2322C153.206 50.867 153.986 50.2953 154.598 49.5656C155.193 48.8553 155.626 48.0253 155.869 47.1324C156.004 46.6671 156.11 46.194 156.186 45.7158C156.259 45.219 156.298 44.7179 156.303 44.2158C156.283 43.1881 156.188 42.1633 156.019 41.1493C155.671 39.3454 155.11 37.5889 154.348 35.9162C154.047 35.2329 153.763 34.6829 153.579 34.2496L153.228 33.783Z" fill="#FF561D"/>
<path d="M147.244 47.9986C147.064 47.6199 146.833 47.2668 146.559 46.9486C145.977 46.2801 145.308 45.6916 144.57 45.1987C143.803 44.7023 142.985 44.2889 142.13 43.9654C141.712 43.7987 141.294 43.6488 140.893 43.5321C140.492 43.4154 140.057 43.2988 139.656 43.1988C138.837 43.0154 138.102 42.8988 137.467 42.8155C136.831 42.7321 136.313 42.6988 135.929 42.6821H135.327C135.327 42.6821 135.411 42.8488 135.578 43.1154C135.745 43.3821 135.979 43.7821 136.28 44.2321C136.581 44.682 136.597 44.6987 136.798 44.9654L137.082 45.3653L137.383 45.782C137.814 46.394 138.283 46.9785 138.787 47.5319C139.295 48.1346 139.854 48.6923 140.458 49.1985C140.612 49.3408 140.774 49.4743 140.943 49.5985L141.411 49.9818C141.742 50.2307 142.088 50.4589 142.447 50.6651C143.187 51.0897 143.987 51.3988 144.821 51.5817C145.732 51.7584 146.668 51.7584 147.579 51.5817C147.709 51.1587 147.793 50.7228 147.829 50.2818C147.833 49.8649 147.776 49.4496 147.662 49.0485C147.559 48.6855 147.419 48.3337 147.244 47.9986Z" fill="#FF561D"/>
<path d="M145.99 37.9988C146.734 37.4356 147.342 36.7139 147.77 35.8863C148.198 35.0588 148.435 34.1463 148.464 33.2157C148.489 32.2419 148.399 31.2687 148.197 30.3158C147.96 29.33 147.641 28.3656 147.244 27.4326C146.853 26.5446 146.406 25.6819 145.907 24.8494C145.474 24.1372 145.006 23.4474 144.503 22.7828C144.085 22.1995 143.684 21.7495 143.416 21.4162L142.982 20.9329C142.982 20.9329 142.815 21.8662 142.664 23.2661C142.581 23.9661 142.497 24.7827 142.43 25.6827C142.43 26.116 142.43 26.566 142.43 27.0326C142.43 27.4992 142.43 27.9992 142.43 28.4825C142.346 30.3512 142.543 32.222 143.015 34.0323C143.217 34.8617 143.58 35.6432 144.085 36.3322C144.586 37.0237 145.238 37.5934 145.99 37.9988Z" fill="#FF561D"/>
<path d="M139.389 34.6655C137.899 33.6323 136.177 32.9799 134.374 32.7656C133.512 32.6264 132.64 32.5595 131.767 32.5656C130.948 32.5656 130.196 32.5656 129.544 32.5656C128.813 32.6717 128.087 32.8163 127.371 32.9989L127.722 33.3655L128.658 34.3155C129.059 34.7155 129.561 35.1488 130.096 35.6154C130.665 36.1198 131.262 36.5927 131.884 37.032C132.544 37.5168 133.237 37.9567 133.957 38.3487C134.683 38.7598 135.458 39.079 136.263 39.2986C137.976 39.8472 139.831 39.7524 141.478 39.032C141.522 38.1736 141.344 37.3183 140.96 36.5487C140.568 35.8225 140.033 35.1821 139.389 34.6655Z" fill="#FF561D"/>
<path d="M56.2847 28.8995C56.9197 28.9246 57.5552 28.8629 58.1734 28.7162C58.9671 28.4899 59.7181 28.1352 60.3965 27.6663C60.735 27.4188 61.0587 27.1516 61.3659 26.8663C61.6874 26.5817 61.989 26.2754 62.2685 25.9497C62.872 25.2995 63.4305 24.609 63.9399 23.8831C64.9093 22.4498 65.745 20.9665 66.3468 19.8499C66.6476 19.2999 66.8816 18.8333 67.0488 18.5L67.1992 18.1167V18H67.0655H66.6309C66.1126 18.0683 65.5991 18.1685 65.0932 18.3C63.4963 18.7042 61.9574 19.309 60.5135 20.0999C58.8453 20.9606 57.4027 22.1993 56.3014 23.7164C55.7905 24.4373 55.4479 25.263 55.2986 26.133C55.1322 26.8625 55.1322 27.62 55.2986 28.3496" fill="#FF561D"/>
<path d="M137.668 29.333C137.866 28.5937 137.901 27.8202 137.768 27.0664C137.601 26.2068 137.259 25.3903 136.765 24.6665C135.669 23.1446 134.225 21.9049 132.553 21.05C131.093 20.2643 129.537 19.6705 127.923 19.2834C127.288 19.1334 126.753 19.0334 126.386 18.9834H125.968H125.834V19.1167C125.834 19.1167 125.934 19.3334 126.018 19.5L126.737 20.85C127.466 22.2308 128.27 23.5716 129.143 24.8665C129.657 25.5945 130.215 26.2902 130.815 26.9497C131.094 27.2702 131.396 27.5709 131.717 27.8497C132.017 28.1438 132.341 28.4115 132.687 28.6496C133.355 29.1178 134.102 29.4622 134.893 29.6663C135.532 29.823 136.191 29.8848 136.849 29.8496" fill="#FF561D"/>
</g>
<path d="M96.9277 57C101.086 57 104.716 58.3749 107.818 61.1247L107.504 61.5646C107.378 61.741 107.064 62.0802 106.561 62.5835C106.058 63.0864 105.509 63.5646 104.914 64.0172C104.318 64.47 103.509 64.9855 102.486 65.5641C101.463 66.1426 100.373 66.6501 99.2163 67.086C97.2881 63.5308 95.2258 60.3281 93.0291 57.4777C94.354 57.1592 95.6534 57 96.9277 57ZM83.9998 63.2623C85.6095 61.2337 87.571 59.674 89.8852 58.5843C91.9644 61.351 94.01 64.5204 96.0224 68.0919C90.9249 69.4333 85.8442 70.1041 80.7802 70.1039C81.3171 67.572 82.3902 65.2913 83.9998 63.2623ZM81.5345 79.4488C80.7966 77.5625 80.4277 75.5793 80.4277 73.4999C80.4277 73.265 80.4363 73.0889 80.4529 72.9717C86.5232 72.9717 92.1658 72.1921 97.3807 70.6323C97.9174 71.6719 98.3617 72.6026 98.7138 73.4245C98.6459 73.4579 98.5377 73.4955 98.3867 73.5375C98.2353 73.5794 98.1266 73.6085 98.0589 73.6255L97.1286 73.9524C96.4912 74.1873 95.6566 74.5899 94.6258 75.1597C93.5947 75.7304 92.5005 76.4091 91.3435 77.1974C90.1864 77.9858 88.9918 79.0295 87.7595 80.3295C86.5271 81.629 85.4916 83.0245 84.6532 84.5168C83.3117 83.0245 82.2723 81.3346 81.5345 79.4488ZM96.9277 90C93.0039 90 89.4993 88.7422 86.4138 86.2272L86.7912 86.504C87.378 85.2125 88.2414 83.9715 89.3819 82.7812C90.5223 81.591 91.6205 80.6305 92.6768 79.9009C93.7332 79.172 94.8818 78.4845 96.1228 77.8381C97.3636 77.193 98.21 76.7818 98.6632 76.6063C99.116 76.4303 99.4765 76.2916 99.7448 76.1908L99.7949 76.1655H99.8455C101.488 80.4749 102.663 84.6505 103.367 88.6917C101.287 89.564 99.1414 89.9997 96.9277 90ZM110.812 82.4164C109.571 84.3366 108.02 85.9258 106.159 87.1829C105.471 83.3264 104.399 79.3937 102.939 75.3864C106.276 74.866 109.705 75.1095 113.227 76.1153C112.858 78.3958 112.053 80.4966 110.812 82.4164ZM113.176 73.2735C113.008 73.2402 112.798 73.2022 112.547 73.1605C112.296 73.1188 111.989 73.0682 111.629 73.0096C111.269 72.9509 110.866 72.8965 110.422 72.8462C109.977 72.7958 109.504 72.7499 109 72.7079C108.497 72.6658 107.961 72.6326 107.391 72.6072C106.82 72.5822 106.242 72.5696 105.655 72.5696C105.068 72.5696 104.452 72.5865 103.806 72.6198C103.161 72.6528 102.537 72.7122 101.933 72.7959C101.883 72.712 101.82 72.5736 101.744 72.3806C101.669 72.188 101.614 72.041 101.581 71.9404C101.262 71.2362 100.894 70.4396 100.474 69.5511C101.631 69.0813 102.734 68.5408 103.782 67.9286C104.83 67.3164 105.668 66.7717 106.297 66.2938C106.926 65.8155 107.521 65.3083 108.083 64.7719C108.645 64.2354 109.009 63.8624 109.177 63.6528C109.345 63.4427 109.504 63.2374 109.655 63.0364L109.68 63.0111C112.128 65.9959 113.378 69.4332 113.428 73.3238L113.176 73.2735Z" fill="black"/>
<defs>
<filter id="filter0_d" x="0.427734" y="0" width="193" height="170.822" filterUnits="userSpaceOnUse" color-interpolation-filters="sRGB">
<feFlood flood-opacity="0" result="BackgroundImageFix"/>
<feColorMatrix in="SourceAlpha" type="matrix" values="0 0 0 0 0 0 0 0 0 0 0 0 0 0 0 0 0 0 127 0"/>
<feOffset dy="12"/>
<feGaussianBlur stdDeviation="15"/>
<feColorMatrix type="matrix" values="0 0 0 0 0 0 0 0 0 0 0 0 0 0 0 0 0 0 0.15 0"/>
<feBlend mode="normal" in2="BackgroundImageFix" result="effect1_dropShadow"/>
<feBlend mode="normal" in="SourceGraphic" in2="effect1_dropShadow" result="shape"/>
</filter>
</defs>
</svg>
