<svg width="482" height="364" viewBox="0 0 482 364" fill="none" xmlns="http://www.w3.org/2000/svg">
<circle cx="300" cy="182" r="182" fill="#F3F3F3"/>
<g clip-path="url(#clip0_1_21)">
<path fill-rule="evenodd" clip-rule="evenodd" d="M231.754 206.744C231.754 206.486 231.573 206.191 231.355 206.08C230.845 205.785 230.079 205.601 228.513 205.601C224.979 205.601 221.883 207.371 220.535 210.359V206.744C220.535 206.449 220.281 206.191 219.953 206.191H214.706C214.415 206.191 214.16 206.413 214.16 206.744V231.237C214.16 231.532 214.415 231.79 214.742 231.79L220.281 231.79C220.571 231.79 220.827 231.532 220.827 231.237V220.208C220.827 215.302 224.214 212.868 228.549 212.868C229.569 212.868 230.589 213.051 231.099 213.236C231.464 213.347 231.791 213.089 231.791 212.683V206.707L231.754 206.744ZM196.492 205.564C204.252 205.564 210.044 210.986 210.044 218.99C210.044 226.958 204.252 232.417 196.529 232.417C188.806 232.417 183.051 226.995 183.051 218.99C183.015 210.986 188.77 205.564 196.492 205.564V205.564ZM196.492 225.778C200.281 225.778 203.196 223.085 203.196 218.99C203.196 214.896 200.281 212.167 196.492 212.167C192.741 212.167 189.826 214.896 189.826 218.99C189.863 223.085 192.777 225.778 196.492 225.778ZM165.82 205.564C173.58 205.564 179.335 210.986 179.335 218.99C179.335 226.958 173.544 232.417 165.856 232.417C158.098 232.417 152.306 226.995 152.306 218.99C152.306 210.986 158.061 205.564 165.82 205.564ZM165.82 225.778C169.609 225.778 172.523 223.085 172.523 218.99C172.523 214.896 169.609 212.167 165.856 212.167C162.105 212.167 159.19 214.896 159.19 218.99C159.154 223.122 162.068 225.815 165.82 225.778V225.778ZM147.643 195.973C147.935 195.973 148.189 196.195 148.189 196.527V231.237C148.189 231.532 147.971 231.79 147.643 231.79L142.105 231.79C141.814 231.79 141.559 231.532 141.559 231.237V228.213C139.702 230.868 136.86 232.454 133.218 232.454C126.988 232.454 121.779 227.659 121.779 218.991C121.779 210.323 126.988 205.527 133.109 205.527C137.042 205.527 139.848 207.409 141.559 209.88V196.527C141.559 196.232 141.814 195.937 142.142 195.937L147.643 195.973V195.973ZM135.185 225.888C138.9 225.888 141.779 223.233 141.779 219.027C141.779 214.786 138.9 212.167 135.185 212.167C131.432 212.167 128.592 214.896 128.592 219.027C128.592 223.196 131.432 225.888 135.185 225.888ZM118.136 224.081C118.136 229.909 113.984 232.417 107.281 232.417C102.691 232.417 98.6839 231.126 96.4257 228.544C96.243 228.323 96.243 228.028 96.4257 227.807L99.5943 223.565C99.813 223.269 100.213 223.269 100.432 223.528C102.108 225.298 104.73 226.368 107.937 226.368C109.794 226.368 111.324 225.851 111.324 224.413C111.324 223.011 109.94 222.716 105.715 221.794C101.999 221.019 97.3721 219.285 97.3721 213.716C97.3721 208.515 101.416 205.564 107.973 205.564C112.308 205.564 115.404 206.892 117.59 208.995C117.809 209.216 117.809 209.547 117.626 209.769L114.602 213.79C114.421 214.048 114.056 214.085 113.802 213.9C112.344 212.536 109.867 211.724 107.426 211.724C105.386 211.724 104.221 212.388 104.221 213.495C104.221 214.786 105.605 215.081 110.049 216.04C114.457 216.999 118.136 218.696 118.136 224.081ZM92.6369 224.081C92.6369 229.909 88.4842 232.417 81.7814 232.417C77.155 232.417 73.1851 231.126 70.8896 228.544C70.7436 228.323 70.7436 228.028 70.8896 227.807L74.0954 223.601C74.277 223.306 74.7146 223.306 74.9329 223.565C76.609 225.335 79.2315 226.405 82.4372 226.405C84.295 226.405 85.825 225.888 85.825 224.45C85.825 223.048 84.441 222.753 80.2151 221.831C76.4995 221.056 71.8733 219.323 71.8733 213.752C71.8733 208.551 75.8798 205.601 82.4738 205.601C86.8082 205.601 89.9054 206.929 92.0904 209.032C92.3092 209.216 92.3092 209.584 92.127 209.805L89.1035 213.79C88.9219 214.048 88.5209 214.085 88.302 213.9C86.8453 212.536 84.3677 211.724 81.9273 211.724C79.887 211.724 78.7216 212.388 78.7216 213.495C78.7216 214.786 80.1058 215.081 84.5504 216.04C88.9219 216.999 92.6003 218.696 92.6369 224.081V224.081ZM55.2256 205.638C62.5478 205.638 66.2267 208.921 66.2267 216.04V231.311C66.2267 231.606 65.9717 231.864 65.644 231.864H60.1069C59.8158 231.864 59.5609 231.643 59.5609 231.311V228.396C58.2857 230.463 55.7726 232.38 51.8378 232.38C46.847 232.38 43.3503 229.134 43.3503 224.413C43.3503 219.765 46.7747 216.814 51.4011 216.372L58.2857 215.744C59.196 215.634 59.5609 215.339 59.5609 214.712V214.306C59.5609 212.83 58.1762 211.761 55.1894 211.761C52.7852 211.761 50.2715 212.462 49.179 214.528C49.033 214.822 48.6687 214.86 48.4137 214.675L44.4066 211.724C44.1879 211.576 44.115 211.245 44.2611 211.023C46.0094 207.445 49.98 205.675 55.2256 205.675V205.638ZM59.5609 221.462V220.429L53.3678 221.204C51.3279 221.499 50.2715 222.569 50.2715 224.008C50.2715 225.667 51.5461 226.737 53.841 226.737C57.3383 226.737 59.597 224.265 59.5609 221.462V221.462ZM38.8328 196.527V231.237C38.8328 231.569 38.5779 231.827 38.2868 231.827H32.713C32.422 231.827 32.1304 231.569 32.1304 231.237V196.527C32.1304 196.232 32.3854 195.974 32.6769 195.974L38.2502 195.973C38.5779 195.973 38.8328 196.232 38.8328 196.527ZM26.0834 206.155C26.3745 206.155 26.6665 206.413 26.6665 206.744V230.093C26.6665 236.696 23.5698 242.672 13.0057 242.672C8.16105 242.672 4.80933 241.27 2.25955 239.02C2.07738 238.872 2.04074 238.54 2.36894 237.987L4.84597 233.708C4.992 233.413 5.39246 233.339 5.64739 233.597C7.65069 235.405 9.90941 236.364 12.7508 236.364C18.3608 236.364 20.1091 233.45 20.1091 229.761V228.138C18.4696 230.536 15.6649 232.048 12.0587 232.048C5.35582 232.048 0.255737 227.401 0.255737 218.88C0.255737 210.322 5.61075 205.564 11.8761 205.564C15.7377 205.564 18.6522 207.445 20.073 209.769V206.781C20.073 206.486 20.3279 206.191 20.6556 206.191L26.0834 206.155V206.155ZM13.6616 225.851C17.4133 225.851 20.1818 223.196 20.1818 218.99C20.1818 214.749 17.4133 212.13 13.6616 212.13C9.87279 212.13 7.06806 214.86 7.06806 218.99C7.06806 223.122 9.90891 225.851 13.6616 225.851" fill="black"/>
</g>
<rect y="99.4396" width="56.6154" height="60.6593" fill="#FF561D"/>
<rect x="64.7043" y="99.4396" width="56.6154" height="60.6593" fill="#FF561D"/>
<rect x="129.406" y="99.4396" width="56.6154" height="60.6593" fill="#FF561D"/>
<rect x="194.111" y="99.4396" width="56.6154" height="60.6593" fill="#FF561D"/>
<rect x="258.812" y="99.4396" width="56.6154" height="60.6593" fill="#DFDFDF"/>
<rect x="258.812" y="99.4396" width="46.5055" height="60.6593" fill="#FF561D"/>
<path d="M28.3066 109.549L33.3002 124.918H49.4598L36.3864 134.417L41.38 149.785L28.3066 140.287L15.2333 149.785L20.2269 134.417L7.15348 124.918H23.3131L28.3066 109.549Z" fill="white"/>
<path d="M93.011 109.549L98.0045 124.918H114.164L101.091 134.417L106.084 149.785L93.011 140.287L79.9376 149.785L84.9312 134.417L71.8578 124.918H88.0174L93.011 109.549Z" fill="white"/>
<path d="M157.715 109.549L162.709 124.918H178.868L165.795 134.417L170.789 149.785L157.715 140.287L144.642 149.785L149.635 134.417L136.562 124.918H152.722L157.715 109.549Z" fill="white"/>
<path d="M222.417 109.549L227.411 124.918H243.57L230.497 134.417L235.491 149.785L222.417 140.287L209.344 149.785L214.337 134.417L201.264 124.918H217.424L222.417 109.549Z" fill="white"/>
<path d="M287.121 109.549L292.115 124.918H308.275L295.201 134.417L300.195 149.785L287.121 140.287L274.048 149.785L279.042 134.417L265.968 124.918H282.128L287.121 109.549Z" fill="white"/>
<path d="M346.62 140V135.016H336.344V132.524L346.956 120.12H349.7V132.16H352.36V135.016H349.7V140H346.62ZM346.62 132.16V124.712L340.208 132.16H346.62ZM359.527 137.788C359.527 138.46 359.284 139.039 358.799 139.524C358.332 139.991 357.763 140.224 357.091 140.224C356.438 140.224 355.868 139.991 355.383 139.524C354.916 139.039 354.683 138.46 354.683 137.788C354.683 137.135 354.916 136.565 355.383 136.08C355.868 135.595 356.438 135.352 357.091 135.352C357.763 135.352 358.332 135.595 358.799 136.08C359.284 136.565 359.527 137.135 359.527 137.788ZM362.52 140L368.176 132.888H367.868C366.226 132.888 364.779 132.281 363.528 131.068C362.278 129.836 361.652 128.315 361.652 126.504C361.652 124.6 362.287 123.004 363.556 121.716C364.844 120.428 366.487 119.784 368.484 119.784C370.482 119.784 372.115 120.428 373.384 121.716C374.672 123.004 375.316 124.591 375.316 126.476C375.316 127.428 375.13 128.277 374.756 129.024C374.402 129.771 373.832 130.648 373.048 131.656L366.384 140H362.52ZM364.788 126.476C364.788 127.521 365.143 128.408 365.852 129.136C366.562 129.864 367.439 130.228 368.484 130.228C369.53 130.228 370.407 129.864 371.116 129.136C371.826 128.408 372.18 127.521 372.18 126.476C372.18 125.449 371.826 124.572 371.116 123.844C370.407 123.116 369.53 122.752 368.484 122.752C367.439 122.752 366.562 123.116 365.852 123.844C365.143 124.572 364.788 125.449 364.788 126.476Z" fill="black"/>
<defs>
<clipPath id="clip0_1_21">
<rect width="232.527" height="46.5055" fill="white" transform="translate(0 196.495)"/>
</clipPath>
</defs>
</svg>
